<svg width="101" height="100" viewBox="0 0 101 100" fill="none" xmlns="http://www.w3.org/2000/svg">
<g clip-path="url(#clip0)">
<path d="M36.0332 67.7939H14.0457C12.9411 67.7939 12.0457 68.6894 12.0457 69.7939V90.2376C12.0457 91.3422 12.9411 92.2376 14.0457 92.2376H36.0332C37.1377 92.2376 38.0332 91.3422 38.0332 90.2376V69.7939C38.0332 68.6894 37.1377 67.7939 36.0332 67.7939Z" stroke="black" stroke-width="4" stroke-linecap="round" stroke-linejoin="round"/>
<path d="M16.9037 67.7937H33.1752C33.4282 67.7937 33.6333 67.5886 33.6333 67.3356V61.4987C33.6333 56.7524 29.7857 52.9048 25.0394 52.9048C20.2932 52.9048 16.4456 56.7524 16.4456 61.4986V67.3356C16.4456 67.5886 16.6507 67.7937 16.9037 67.7937Z" stroke="black" stroke-width="4" stroke-linecap="round" stroke-linejoin="round"/>
<path d="M23.0394 85.6365C23.0394 86.741 23.9348 87.6365 25.0394 87.6365C26.144 87.6365 27.0394 86.741 27.0394 85.6365H23.0394ZM23.0394 78.1514V85.6365H27.0394V78.1514H23.0394Z" fill="black"/>
<circle cx="25.0394" cy="77.9132" r="3.68323" fill="black"/>
<path d="M34.5755 6.95801C32.3664 6.95801 30.5755 8.74887 30.5755 10.958C30.5755 13.1671 32.3664 14.958 34.5755 14.958C60.9933 14.958 82.4091 36.3738 82.4091 62.7916C82.4091 65.0008 84.2 66.7916 86.4091 66.7916C88.6183 66.7916 90.4091 65.0008 90.4091 62.7916C90.4091 31.9556 65.4116 6.95801 34.5755 6.95801ZM34.5755 31.2891C32.3664 31.2891 30.5755 33.0799 30.5755 35.2891C30.5755 37.4982 32.3664 39.2891 34.5755 39.2891C47.5556 39.2891 58.0781 49.8115 58.0781 62.7916C58.0781 65.0008 59.8689 66.7916 62.0781 66.7916C64.2872 66.7916 66.0781 65.0008 66.0781 62.7916C66.0781 45.3932 51.9739 31.2891 34.5755 31.2891Z" stroke="black" stroke-width="4" stroke-linecap="round"/>
</g>
<defs>
<clipPath id="clip0">
<rect x="0.976166" width="100" height="100" fill="white"/>
</clipPath>
</defs>
</svg>
