<svg width="101" height="100" viewBox="0 0 101 100" fill="none" xmlns="http://www.w3.org/2000/svg">
<g clip-path="url(#clip0)">
<path d="M26.1866 9.16455C23.778 9.16455 21.8255 11.1171 21.8255 13.5257C21.8255 15.9342 23.778 17.8868 26.1866 17.8868C57.5737 17.8868 83.018 43.3311 83.018 74.7182C83.018 77.1268 84.9706 79.0793 87.3792 79.0793C89.7877 79.0793 91.7403 77.1268 91.7403 74.7182C91.7403 38.5139 62.3909 9.16455 26.1866 9.16455ZM26.1866 37.8887C23.778 37.8887 21.8255 39.8413 21.8255 42.2499C21.8255 44.6584 23.778 46.611 26.1866 46.611C41.7098 46.611 54.2939 59.195 54.2939 74.7182C54.2939 77.1268 56.2464 79.0793 58.655 79.0793C61.0636 79.0793 63.0161 77.1268 63.0161 74.7182C63.0161 54.3779 46.527 37.8887 26.1866 37.8887Z" stroke="black" stroke-width="4" stroke-linecap="round"/>
<circle cx="25.0061" cy="75.8987" r="12.9368" stroke="black" stroke-width="4"/>
<circle cx="25.0061" cy="75.8985" r="6.17044" stroke="black" stroke-width="4"/>
</g>
<defs>
<clipPath id="clip0">
<rect x="0.904785" width="100" height="100" fill="white"/>
</clipPath>
</defs>
</svg>
