<svg width="101" height="100" viewBox="0 0 101 100" fill="none" xmlns="http://www.w3.org/2000/svg">
<g clip-path="url(#clip0)">
<path d="M19.4823 28.2211L15.4166 25.8737C13.9101 25.0039 11.9836 25.5201 11.1138 27.0267C10.244 28.5333 10.7602 30.4597 12.2668 31.3295L16.3324 33.6768L13.1144 34.5391C11.4341 34.9893 10.4369 36.7165 10.8871 38.3969C11.3374 40.0773 13.0646 41.0745 14.7449 40.6242L24.0481 38.1315L28.5924 40.7551V59.2449L24.0481 61.8686L14.7449 59.3758C13.0646 58.9256 11.3374 59.9228 10.8871 61.6031C10.4369 63.2835 11.4341 65.0107 13.1144 65.461L16.3324 66.3232L12.2668 68.6705C10.7602 69.5404 10.244 71.4668 11.1138 72.9734C11.9836 74.4799 13.9101 74.9961 15.4166 74.1263L19.4823 71.779L18.6201 74.997C18.1698 76.6774 19.167 78.4046 20.8474 78.8548C22.5277 79.3051 24.2549 78.3079 24.7052 76.6275L27.1979 67.3244L31.7423 64.7007L47.7549 73.9453V79.1927L40.9446 86.003C39.7144 87.2331 39.7144 89.2275 40.9446 90.4577C42.1747 91.6878 44.1691 91.6878 45.3992 90.4577L47.7549 88.1019V92.7965C47.7549 94.5362 49.1652 95.9464 50.9048 95.9464C52.6444 95.9464 54.0547 94.5362 54.0547 92.7965V88.1019L56.4104 90.4577C57.6405 91.6878 59.6349 91.6878 60.8651 90.4577C62.0952 89.2275 62.0952 87.2331 60.8651 86.003L54.0547 79.1927V73.9453L70.0673 64.7008L74.6117 67.3245L77.1044 76.6276C77.5547 78.308 79.2819 79.3052 80.9622 78.8549C82.6426 78.4047 83.6398 76.6775 83.1896 74.9971L82.3273 71.7791L86.393 74.1264C87.8995 74.9962 89.826 74.48 90.6958 72.9735C91.5656 71.4669 91.0494 69.5405 89.5429 68.6706L85.4772 66.3233L88.6952 65.4611C90.3755 65.0108 91.3727 63.2836 90.9225 61.6033C90.4722 59.9229 88.745 58.9257 87.0647 59.3759L77.7616 61.8687L73.2172 59.245V40.7553L77.7616 38.1316L87.0647 40.6243C88.745 41.0746 90.4722 40.0774 90.9225 38.397C91.3727 36.7167 90.3755 34.9894 88.6952 34.5392L85.4772 33.6769L89.5429 31.3296C91.0494 30.4598 91.5656 28.5334 90.6958 27.0268C89.826 25.5202 87.8995 25.004 86.393 25.8738L82.3273 28.2212L83.1896 25.0032C83.6398 23.3228 82.6426 21.5956 80.9622 21.1454C79.2819 20.6951 77.5547 21.6923 77.1044 23.3727L74.6117 32.6758L70.0673 35.2995L54.0547 26.0549V20.8075L60.8651 13.9971C62.0952 12.767 62.0952 10.7726 60.8651 9.54251L59.8044 10.6032L60.8651 9.5425C59.6349 8.3124 57.6405 8.3124 56.4104 9.5425L54.0547 11.8982V7.2036C54.0547 5.46397 52.6444 4.05371 50.9048 4.05371C49.1652 4.05371 47.7549 5.46397 47.7549 7.2036V11.8982L45.3992 9.54251C44.1691 8.31239 42.1747 8.31239 40.9446 9.54251C39.7144 10.7726 39.7144 12.767 40.9446 13.9971L47.7549 20.8075V26.0548L31.7423 35.2994L27.1979 32.6757L24.7052 23.3726C24.2549 21.6922 22.5277 20.695 20.8474 21.1453C19.167 21.5955 18.1698 23.3227 18.6201 25.0031L19.4823 28.2211Z" stroke="black" stroke-width="3" stroke-linecap="round" stroke-linejoin="round"/>
<path d="M35.1813 40.9224V59.0783L50.9048 68.1561L66.6283 59.0784V40.9225L50.9048 31.8447L43.043 36.3836L35.1813 40.9224Z" stroke="black" stroke-width="3" stroke-linecap="round" stroke-linejoin="round"/>
</g>
<defs>
<clipPath id="clip0">
<rect x="0.904785" width="100" height="100" fill="white"/>
</clipPath>
</defs>
</svg>
