<svg width="101" height="100" viewBox="0 0 101 100" fill="none" xmlns="http://www.w3.org/2000/svg">
<g clip-path="url(#clip0)">
<path d="M86.9128 52.9031V40.7012C86.9128 38.492 85.1219 36.7012 82.9128 36.7012H12.4925C10.2834 36.7012 8.49252 38.492 8.49252 40.7012V86.7012C8.49252 88.9103 10.2834 90.7012 12.4925 90.7012H82.9128C85.1219 90.7012 86.9128 88.9103 86.9128 86.7012V73.8749" stroke="black" stroke-width="4" stroke-linecap="round" stroke-linejoin="round"/>
<rect x="64.7788" y="54.0723" width="27.9667" height="19.2578" rx="4" stroke="black" stroke-width="4" stroke-linecap="round" stroke-linejoin="round"/>
<circle cx="80.6878" cy="63.7012" r="3.47215" fill="black"/>
<path d="M65.7791 36.4723L44.6244 15.3176C41.5002 12.1934 36.4349 12.1934 33.3107 15.3176L12.1553 36.4728" stroke="black" stroke-width="4" stroke-linecap="round" stroke-linejoin="round"/>
<path d="M44.0813 14.431L42.7064 15.8835L45.6115 18.6332L46.9863 17.1807L44.0813 14.431ZM76.5287 37.666C77.3097 38.4471 78.5761 38.4471 79.3571 37.666C80.1381 36.885 80.1381 35.6187 79.3571 34.8376L76.5287 37.666ZM46.9863 17.1807L47.1509 17.0068L44.2458 14.2571L44.0813 14.431L46.9863 17.1807ZM55.7511 16.8886L76.5287 37.666L79.3571 34.8376L58.5796 14.0602L55.7511 16.8886ZM47.1509 17.0068C49.4732 14.5533 53.3623 14.4998 55.7511 16.8886L58.5796 14.0602C54.5982 10.0789 48.1163 10.1679 44.2458 14.2571L47.1509 17.0068Z" fill="black"/>
</g>
<defs>
<clipPath id="clip0">
<rect x="0.619019" width="100" height="100" fill="white"/>
</clipPath>
</defs>
</svg>
