<svg width="32" height="31" viewBox="0 0 32 31" fill="none" xmlns="http://www.w3.org/2000/svg">
<path d="M5.52002 16.0078C5.23971 16.0078 5.01221 16.2353 5.01221 16.5156C5.01221 16.7959 5.23971 17.0234 5.52002 17.0234C5.80033 17.0234 6.02783 16.7959 6.02783 16.5156C6.02783 16.2353 5.80033 16.0078 5.52002 16.0078Z" fill="black"/>
<path d="M26.4419 16.0078H15.4731V5.03906C15.4731 4.7586 15.2457 4.53125 14.9653 4.53125C13.3898 4.53125 11.8426 4.85686 10.3666 5.49899C8.94918 6.11562 7.66654 6.99226 6.55423 8.10457C5.44197 9.21684 4.56533 10.4995 3.9487 11.9169C3.30652 13.3929 2.98096 14.9401 2.98096 16.5156C2.98096 18.0911 3.30652 19.6384 3.9487 21.1144C4.56538 22.5318 5.44197 23.8144 6.55428 24.9267C7.66659 26.039 8.94923 26.9157 10.3666 27.5323C11.8426 28.1744 13.3898 28.5 14.9653 28.5C15.6463 28.5 16.3296 28.4407 16.9964 28.3238C19.6716 27.8546 22.1688 26.3971 24.0279 24.2197C25.912 22.0129 26.9497 19.2769 26.9497 16.5156C26.9497 16.2352 26.7223 16.0078 26.4419 16.0078ZM16.821 27.3234C16.212 27.4302 15.5877 27.4844 14.9653 27.4844C9.12219 27.4844 3.99658 22.3588 3.99658 16.5156C3.99658 10.8422 8.82822 5.84532 14.4575 5.55977V16.5156C14.4575 16.7961 14.6849 17.0234 14.9653 17.0234H25.9212C25.6695 21.9876 21.763 26.4567 16.821 27.3234Z" fill="black"/>
<path d="M26.0026 5.47832C24.1099 3.58555 21.5677 2.5 19.0278 2.5C18.6689 2.5 18.3083 2.51986 17.9561 2.55896C17.6989 2.58755 17.5044 2.80489 17.5044 3.06367V13.4688C17.5044 13.7492 17.7318 13.9766 18.0122 13.9766H28.4173C28.6761 13.9766 28.8935 13.782 28.9219 13.5248C28.9611 13.1725 28.981 12.812 28.981 12.4531C28.981 9.9133 27.8954 7.37109 26.0026 5.47832ZM27.9507 12.9609H18.52V3.53035C18.6888 3.5206 18.8585 3.51562 19.0278 3.51562C23.7889 3.51562 27.9653 7.69203 27.9653 12.4531C27.9653 12.6225 27.9604 12.7922 27.9507 12.9609Z" fill="black"/>
<path d="M14.9652 25.4531C10.9618 25.4531 7.12869 22.3624 6.23865 18.4168C6.17695 18.1432 5.90491 17.9713 5.63156 18.0332C5.35795 18.0949 5.1862 18.3667 5.2479 18.6403C5.72256 20.7445 6.96497 22.7068 8.74633 24.1656C10.5599 25.6508 12.7684 26.4687 14.9652 26.4687C15.2456 26.4687 15.473 26.2413 15.473 25.9609C15.473 25.6804 15.2456 25.4531 14.9652 25.4531Z" fill="black"/>
</svg>
