<svg width="100" height="100" viewBox="0 0 100 100" fill="none" xmlns="http://www.w3.org/2000/svg">
<g clip-path="url(#clip0)">
<rect x="9" y="23" width="83" height="54" rx="8" stroke="black" stroke-width="4" stroke-linecap="round" stroke-linejoin="round"/>
<path d="M30.5 32H23C20.7909 32 19 33.7909 19 36L19 46C19 48.2091 20.7909 50 23 50H38C40.2091 50 42 48.2091 42 46V43.5M30.5 32H38C40.2091 32 42 33.7909 42 36V43.5M30.5 32V39.5C30.5 41.7091 32.2909 43.5 34.5 43.5H42" stroke="black" stroke-width="4" stroke-linecap="round" stroke-linejoin="round"/>
<circle cx="61.125" cy="61" r="8.125" stroke="black" stroke-width="4" stroke-linecap="round" stroke-linejoin="round"/>
<circle cx="70.875" cy="61" r="8.125" stroke="black" stroke-width="4" stroke-linecap="round" stroke-linejoin="round"/>
<path d="M19 67H38" stroke="black" stroke-width="4" stroke-linecap="round" stroke-linejoin="round"/>
<path d="M67 35L79 35" stroke="black" stroke-width="4" stroke-linecap="round" stroke-linejoin="round"/>
</g>
<defs>
<clipPath id="clip0">
<rect width="100" height="100" fill="white"/>
</clipPath>
</defs>
</svg>
