<svg width="32" height="31" viewBox="0 0 32 31" fill="none" xmlns="http://www.w3.org/2000/svg">
<g clip-path="url(#clip0)">
<mask id="mask0" mask-type="alpha" maskUnits="userSpaceOnUse" x="-1" y="5" width="31" height="24">
<path fill-rule="evenodd" clip-rule="evenodd" d="M29.6954 5.02344H-0.237305V28.3009H29.6954V21.7983H26.5112V18.7983H29.6954V5.02344ZM1.51123 9.79834H5.51123V14.7983H1.51123V9.79834ZM5.51123 15.7983H1.51123V16.7983H5.51123V15.7983ZM1.51123 17.7983H5.51123V18.7983H1.51123V17.7983ZM5.51123 19.7983H1.51123V20.7983H5.51123V19.7983Z" fill="#C4C4C4"/>
</mask>
<g mask="url(#mask0)">
<path d="M25.8503 6.66217H5.22391C4.29391 6.66217 3.53711 7.41897 3.53711 8.34897V22.5754C3.53711 23.5054 4.29391 24.2622 5.22391 24.2622H25.8503C26.7803 24.2622 27.5371 23.5054 27.5371 22.5754V8.34897C27.5371 7.41897 26.7803 6.66217 25.8503 6.66217ZM26.7371 22.5754C26.7371 23.0642 26.3395 23.4622 25.8503 23.4622H5.22391C4.73471 23.4622 4.33711 23.0642 4.33711 22.5754V8.34897C4.33711 7.86017 4.73471 7.46217 5.22391 7.46217H25.8503C26.3395 7.46217 26.7371 7.86017 26.7371 8.34897V22.5754Z" fill="black"/>
<path d="M9.93701 18.2622H6.33701C6.11581 18.2622 5.93701 18.4414 5.93701 18.6622C5.93701 18.883 6.11581 19.0622 6.33701 19.0622H9.93701C10.1582 19.0622 10.337 18.883 10.337 18.6622C10.337 18.4414 10.1582 18.2622 9.93701 18.2622Z" fill="black"/>
<path d="M15.1372 18.2622H11.5372C11.316 18.2622 11.1372 18.4414 11.1372 18.6622C11.1372 18.883 11.316 19.0622 11.5372 19.0622H15.1372C15.3584 19.0622 15.5372 18.883 15.5372 18.6622C15.5372 18.4414 15.3584 18.2622 15.1372 18.2622Z" fill="black"/>
<path d="M6.73701 20.2621H6.33701C6.11581 20.2621 5.93701 20.4413 5.93701 20.6621C5.93701 20.8829 6.11581 21.0621 6.33701 21.0621H6.73701C6.95821 21.0621 7.13701 20.8829 7.13701 20.6621C7.13701 20.4413 6.95821 20.2621 6.73701 20.2621Z" fill="black"/>
<path d="M9.13701 20.2621H8.33701C8.11581 20.2621 7.93701 20.4413 7.93701 20.6621C7.93701 20.8829 8.11581 21.0621 8.33701 21.0621H9.13701C9.35821 21.0621 9.53701 20.8829 9.53701 20.6621C9.53701 20.4413 9.35821 20.2621 9.13701 20.2621Z" fill="black"/>
<path d="M11.1374 20.2621H10.7374C10.5162 20.2621 10.3374 20.4413 10.3374 20.6621C10.3374 20.8829 10.5162 21.0621 10.7374 21.0621H11.1374C11.3586 21.0621 11.5374 20.8829 11.5374 20.6621C11.5374 20.4413 11.3586 20.2621 11.1374 20.2621Z" fill="black"/>
<path d="M13.5369 20.2621H12.7369C12.5157 20.2621 12.3369 20.4413 12.3369 20.6621C12.3369 20.8829 12.5157 21.0621 12.7369 21.0621H13.5369C13.7581 21.0621 13.9369 20.8829 13.9369 20.6621C13.9369 20.4413 13.7581 20.2621 13.5369 20.2621Z" fill="black"/>
<path d="M14.8528 20.3782C14.7804 20.4542 14.7368 20.5582 14.7368 20.6622C14.7368 20.7662 14.7804 20.8702 14.8528 20.9462C14.9284 21.0182 15.0328 21.0622 15.1368 21.0622C15.2408 21.0622 15.3448 21.0182 15.4208 20.9462C15.4928 20.8702 15.5368 20.7662 15.5368 20.6622C15.5368 20.5582 15.4928 20.4542 15.4208 20.3782C15.2688 20.2302 14.9964 20.2302 14.8528 20.3782Z" fill="black"/>
<path d="M22.7372 16.6622C22.2268 16.6622 21.7496 16.8018 21.3372 17.041C20.9248 16.8018 20.4476 16.6622 19.9372 16.6622C18.3936 16.6622 17.1372 17.9182 17.1372 19.4622C17.1372 21.0062 18.3936 22.2622 19.9372 22.2622C20.4476 22.2622 20.9248 22.1226 21.3372 21.8834C21.7496 22.1226 22.2268 22.2622 22.7372 22.2622C24.2808 22.2622 25.5372 21.0062 25.5372 19.4622C25.5372 17.9182 24.2808 16.6622 22.7372 16.6622ZM21.9372 19.4622C21.9372 20.0198 21.7068 20.5238 21.3372 20.887C20.9676 20.5238 20.7372 20.0198 20.7372 19.4622C20.7372 18.9046 20.9676 18.4006 21.3372 18.0374C21.7068 18.4006 21.9372 18.9046 21.9372 19.4622ZM17.9372 19.4622C17.9372 18.3594 18.8344 17.4622 19.9372 17.4622C20.1896 17.4622 20.4292 17.5142 20.652 17.6002C20.2092 18.0954 19.9372 18.747 19.9372 19.4622C19.9372 20.1774 20.2092 20.829 20.652 21.3242C20.4292 21.4102 20.1896 21.4622 19.9372 21.4622C18.8344 21.4622 17.9372 20.565 17.9372 19.4622ZM22.7372 21.4622C22.4848 21.4622 22.2452 21.4102 22.0224 21.3242C22.4652 20.829 22.7372 20.1774 22.7372 19.4622C22.7372 18.747 22.4652 18.0954 22.0224 17.6002C22.2452 17.5142 22.4848 17.4622 22.7372 17.4622C23.84 17.4622 24.7372 18.3594 24.7372 19.4622C24.7372 20.565 23.84 21.4622 22.7372 21.4622Z" fill="black"/>
<path d="M6.83901 15.4622H9.23901H9.83501H12.235C12.7322 15.4622 13.137 15.0574 13.137 14.5602V11.3602V10.7642C13.137 10.267 12.7322 9.86218 12.235 9.86218H9.23901H6.83901C6.34181 9.86218 5.93701 10.267 5.93701 10.7642V14.5602C5.93701 15.0574 6.34181 15.4622 6.83901 15.4622ZM8.33701 13.0622H6.73701V12.2622H8.33701V13.0622ZM6.73701 14.5602V13.8622H8.33701V14.5602C8.33701 14.595 8.34341 14.6282 8.34741 14.6622H6.83901C6.78261 14.6622 6.73701 14.6166 6.73701 14.5602ZM12.337 13.0622H10.737V12.3642C10.737 12.3078 10.7826 12.2622 10.839 12.2622H12.235C12.2698 12.2622 12.303 12.2558 12.337 12.2518V13.0622V13.0622ZM12.235 14.6622H10.7266C10.7306 14.6282 10.737 14.595 10.737 14.5602V13.8622H12.337V14.5602C12.337 14.6166 12.2914 14.6622 12.235 14.6622ZM12.235 10.6622C12.2914 10.6622 12.337 10.7078 12.337 10.7642V11.3602C12.337 11.4166 12.2914 11.4622 12.235 11.4622H10.839C10.3418 11.4622 9.93701 11.867 9.93701 12.3642V14.5602C9.93701 14.6166 9.89141 14.6622 9.83501 14.6622H9.23901C9.18261 14.6622 9.13701 14.6166 9.13701 14.5602V10.7642C9.13701 10.7078 9.18261 10.6622 9.23901 10.6622H12.235ZM6.83901 10.6622H8.34741C8.34341 10.6962 8.33701 10.7294 8.33701 10.7642V11.4622H6.73701V10.7642C6.73701 10.7078 6.78261 10.6622 6.83901 10.6622Z" fill="black"/>
</g>
</g>
<defs>
<clipPath id="clip0">
<rect x="2.53809" y="6" width="26" height="19" fill="white"/>
</clipPath>
</defs>
</svg>
