<svg width="100" height="100" viewBox="0 0 100 100" fill="none" xmlns="http://www.w3.org/2000/svg">
<g clip-path="url(#clip0)">
<path d="M50 92C73.196 92 92 73.196 92 50C92 47.9685 88.9589 47.6251 87.8781 49.3452C83.1014 56.9471 74.6408 62 65 62C50.0883 62 38 49.9117 38 35C38 25.3592 43.0529 16.8986 50.6548 12.1219C52.3749 11.0411 52.0315 8 50 8C26.804 8 8 26.804 8 50C8 73.196 26.804 92 50 92Z" stroke="black" stroke-width="4" stroke-linecap="round" stroke-linejoin="round"/>
<path d="M50 83C31.7746 83 17 68.2254 17 50" stroke="black" stroke-width="4" stroke-linecap="round" stroke-linejoin="round"/>
</g>
<defs>
<clipPath id="clip0">
<rect width="100" height="100" fill="white"/>
</clipPath>
</defs>
</svg>
