<svg width="32" height="31" viewBox="0 0 32 31" fill="none" xmlns="http://www.w3.org/2000/svg">
<path d="M25.7843 21.3049L25.9414 21.743C24.9563 22.0962 23.8928 22.2754 22.7793 22.2754C17.434 22.2754 13.087 17.9267 13.087 12.5831C13.087 9.36727 14.675 6.37253 17.3345 4.57132L17.6149 4.98531L17.3342 4.57153C17.4492 4.49351 17.5044 4.35289 17.4735 4.21774C17.4429 4.08406 17.3329 3.98135 17.1934 3.96084C16.8336 3.90859 16.4698 3.89087 16.094 3.89087C9.45755 3.89087 4.05908 9.28933 4.05908 15.9258C4.05908 22.5622 9.45755 27.9607 16.094 27.9607C20.3076 27.9607 24.1372 25.8212 26.3408 22.236L25.7843 21.3049ZM25.7843 21.3049L25.9414 21.743M25.7843 21.3049L25.9414 21.743M25.9414 21.743C26.074 21.6954 26.2254 21.737 26.3143 21.8453M25.9414 21.743L26.3143 21.8453M26.3143 21.8453C26.4057 21.9604 26.4141 22.1161 26.3411 22.2356L26.3143 21.8453Z" stroke="black"/>
</svg>
