<svg width="32" height="31" viewBox="0 0 32 31" fill="none" xmlns="http://www.w3.org/2000/svg">
<path fill-rule="evenodd" clip-rule="evenodd" d="M26.998 21.1056C26.774 20.8298 26.398 20.7279 26.067 20.8465C25.1395 21.1791 24.1333 21.3496 23.0737 21.3496C18.0046 21.3496 13.8814 17.2248 13.8814 12.1574C13.8814 9.10719 15.3873 6.26762 17.9093 4.55953C18.1951 4.36565 18.3322 4.01635 18.2553 3.68041C18.1784 3.34448 17.9026 3.09044 17.56 3.0403C17.1689 2.98347 16.7795 2.96509 16.3884 2.96509C9.47584 2.96509 3.85352 8.58741 3.85352 15.5C3.85352 22.4126 9.47584 28.0349 16.3884 28.0349C20.7756 28.0349 24.7668 25.8054 27.0615 22.0716C27.247 21.7691 27.2203 21.383 26.998 21.1056ZM16.9916 3.98465C16.7963 3.97074 16.5961 3.96509 16.3884 3.96509C10.0281 3.96509 4.85352 9.1397 4.85352 15.5C4.85352 21.8603 10.0281 27.0349 16.3884 27.0349C20.2751 27.0349 23.8175 25.1381 25.9619 21.934C25.0471 22.2106 24.0775 22.3496 23.0737 22.3496C17.4522 22.3496 12.8814 17.777 12.8814 12.1574C12.8814 8.92224 14.41 5.89915 16.9916 3.98465Z" fill="black"/>
</svg>
