<svg width="32" height="31" viewBox="0 0 32 31" fill="none" xmlns="http://www.w3.org/2000/svg">
<g clip-path="url(#clip0)">
<path d="M10.9034 24.2276L9.9168 25.4335C9.4905 25.0723 9.08746 24.6846 8.71001 24.2726L9.87707 23.2394C10.1984 23.5897 10.5412 23.9197 10.9034 24.2276Z" fill="black" stroke="#E5E5E5" stroke-width="0.4"/>
<path d="M8.53039 21.4595L7.2181 22.2934C6.92427 21.8162 6.66202 21.3203 6.43303 20.8089L7.86279 20.1951C8.05867 20.6301 8.28165 21.0524 8.53039 21.4595Z" fill="black" stroke="#E5E5E5" stroke-width="0.4"/>
<path d="M7.39462 13.5696L10.2774 10.6906L11.3771 11.7904L6.07999 17.0875L0.782843 11.7904L1.88253 10.6907L5.08989 13.898L5.37592 14.1841L5.42955 13.7831C6.29257 7.33082 11.7923 2.50994 18.3019 2.49938C20.5906 2.50001 22.8386 3.10491 24.8186 4.25288C31.0296 7.85394 33.1454 15.8082 29.5443 22.0192C25.9767 28.1724 18.1367 30.3063 11.9519 26.8441L12.7336 25.4991C13.8058 26.0956 14.9673 26.5157 16.1737 26.7431C22.3783 27.9127 28.3563 23.8308 29.5258 17.6262C30.6953 11.4216 26.6135 5.4436 20.4089 4.27411C14.2042 3.10461 8.22624 7.18637 7.05675 13.391L6.93694 14.0267L7.39462 13.5696Z" fill="black" stroke="#E5E5E5" stroke-width="0.4"/>
<path d="M18.5909 16.4767V16.5767L18.6709 16.6367L22.0308 19.1566L21.0975 20.401L17.0354 17.3544V6.89922H18.5909V16.4767Z" fill="black" stroke="#E5E5E5" stroke-width="0.4"/>
</g>
<defs>
<clipPath id="clip0">
<rect x="0.5" width="31" height="31" fill="white"/>
</clipPath>
</defs>
</svg>
