<svg width="32" height="31" viewBox="0 0 32 31" fill="none" xmlns="http://www.w3.org/2000/svg">
<path d="M28.0873 8.72903C27.9505 8.49378 27.6489 8.41395 27.4136 8.55073L25.0073 9.94168C24.7721 10.0785 24.6923 10.3801 24.8291 10.6154C24.9658 10.8506 25.2675 10.9305 25.5028 10.7937L27.909 9.40273C28.1443 9.26588 28.2241 8.96428 28.0873 8.72903Z" fill="black"/>
<path d="M27.909 21.6L25.5028 20.2091C25.2675 20.0723 24.9658 20.1521 24.8291 20.3874C24.6923 20.6226 24.7721 20.9243 25.0073 21.0611L27.4136 22.452C27.6489 22.5888 27.9505 22.509 28.0873 22.2737C28.2241 22.0384 28.1443 21.7368 27.909 21.6Z" fill="black"/>
<path d="M16.4003 25.2367C16.1274 25.2164 15.8898 25.4212 15.8695 25.694C15.8677 25.7185 15.8677 25.743 15.8695 25.7674V28.5466C15.8493 28.8195 16.054 29.057 16.3269 29.0773C16.5998 29.0976 16.8374 28.8928 16.8576 28.6199C16.8595 28.5955 16.8595 28.571 16.8576 28.5466V25.7674C16.8779 25.4946 16.6731 25.257 16.4003 25.2367Z" fill="black"/>
<path d="M7.71761 9.94168L5.31135 8.55073C5.0761 8.41395 4.77443 8.49378 4.63765 8.72903C4.50087 8.96428 4.58069 9.26594 4.81594 9.40273L7.2222 10.7937C7.45745 10.9305 7.75912 10.8506 7.8959 10.6154C8.03268 10.3801 7.95286 10.0785 7.71761 9.94168Z" fill="black"/>
<path d="M16.4003 1.92265C16.1274 1.90237 15.8898 2.10713 15.8695 2.38002C15.8677 2.40445 15.8677 2.42894 15.8695 2.45337V5.23255C15.871 5.504 16.0908 5.72374 16.3622 5.72523C16.6359 5.72523 16.8576 5.50346 16.8576 5.22983V2.45344C16.8778 2.18056 16.6731 1.94293 16.4003 1.92265Z" fill="black"/>
<path d="M11.6528 6.35947L10.2645 3.95321C10.1278 3.71796 9.82609 3.63814 9.59084 3.77492C9.35559 3.9117 9.27577 4.21337 9.41255 4.44862L10.8008 6.85487C10.9376 7.09012 11.2392 7.16995 11.4745 7.03317C11.7097 6.89632 11.7895 6.59472 11.6528 6.35947Z" fill="black"/>
<path d="M16.4357 11.104C16.4113 11.1021 16.3868 11.1021 16.3624 11.104C13.9345 11.104 11.9663 13.0721 11.9663 15.5C11.9663 15.7737 12.1881 15.9954 12.4617 15.9954C12.7343 15.9939 12.9544 15.7726 12.9544 15.5C12.9529 13.6194 14.4763 12.0936 16.3569 12.0921C16.3588 12.0921 16.3605 12.0921 16.3624 12.0921C16.6352 12.1123 16.8728 11.9076 16.8931 11.6347C16.9134 11.3618 16.7086 11.1242 16.4357 11.104Z" fill="black"/>
<path d="M29.8658 15.4619C29.8477 15.2173 29.6532 15.0227 29.4085 15.0046H26.6293C26.3564 14.9843 26.1188 15.189 26.0986 15.4619C26.0783 15.7348 26.283 15.9724 26.5559 15.9927C26.5804 15.9945 26.6049 15.9945 26.6293 15.9927H29.4085C29.6813 15.9724 29.8861 15.7348 29.8658 15.4619Z" fill="black"/>
<path d="M6.16822 15.0074C6.14379 15.0055 6.11929 15.0055 6.09486 15.0074H3.31569C3.0428 15.0276 2.83804 15.2653 2.85832 15.5381C2.87649 15.7827 3.07098 15.9773 3.31569 15.9955H6.09486C6.36774 16.0157 6.60531 15.811 6.62558 15.5381C6.64586 15.2652 6.4411 15.0276 6.16822 15.0074Z" fill="black"/>
<path d="M16.3648 8.22949C12.3494 8.22895 9.09387 11.4836 9.09326 15.499C9.09299 17.428 9.85937 19.2781 11.2236 20.6419C12.5852 22.0069 14.4347 22.7729 16.3627 22.7705C20.3781 22.771 23.6337 19.5164 23.6343 15.501C23.6348 11.4856 20.3802 8.23004 16.3648 8.22949ZM20.8051 19.9505C18.3516 22.4039 14.3738 22.4039 11.9204 19.9505C10.7402 18.7703 10.0782 17.169 10.0803 15.5C10.078 13.8333 10.7402 12.2345 11.9204 11.0577V11.0658C14.3738 8.61241 18.3516 8.61241 20.8051 11.0658C23.2586 13.5192 23.2586 17.4971 20.8051 19.9505Z" fill="black"/>
<path d="M23.313 26.5535C23.3126 26.5528 23.3122 26.552 23.3117 26.5514L21.9208 24.1451C21.784 23.9099 21.4823 23.83 21.2471 23.9668C21.0118 24.1036 20.932 24.4053 21.0688 24.6405L22.4598 27.0468C22.596 27.2817 22.8968 27.3621 23.1321 27.2264C23.3679 27.0905 23.4489 26.7893 23.313 26.5535Z" fill="black"/>
<path d="M23.1496 3.77492C22.9143 3.63814 22.6127 3.71796 22.4759 3.95321L21.0849 6.35947C20.9472 6.59417 21.0259 6.89604 21.2605 7.03371C21.261 7.03398 21.2614 7.03426 21.2619 7.03453C21.4969 7.17158 21.7986 7.09217 21.9356 6.85705C21.936 6.8563 21.9365 6.85556 21.9369 6.85487L23.3279 4.44862C23.4646 4.2133 23.3848 3.9117 23.1496 3.77492Z" fill="black"/>
<path d="M11.4772 23.9668C11.2419 23.83 10.9403 23.9099 10.8035 24.1451L9.41255 26.5514C9.27577 26.7866 9.35559 27.0883 9.59084 27.2251C9.82609 27.3618 10.1278 27.282 10.2645 27.0468L11.6555 24.6405C11.7923 24.4052 11.7124 24.1036 11.4772 23.9668Z" fill="black"/>
<path d="M7.8959 20.3847C7.75912 20.1495 7.45745 20.0697 7.2222 20.2064L4.81594 21.5974C4.58069 21.7342 4.50087 22.0358 4.63765 22.2711C4.77443 22.5063 5.0761 22.5862 5.31135 22.4494L7.71761 21.0584C7.95286 20.9216 8.03268 20.62 7.8959 20.3847Z" fill="black"/>
</svg>
