<svg width="31" height="31" viewBox="0 0 31 31" fill="none" xmlns="http://www.w3.org/2000/svg">
<path d="M14.4939 20.1349C14.6842 19.9363 14.6842 19.6149 14.4939 19.4164C14.3034 19.2184 13.9949 19.2184 13.8042 19.4164C13.6141 19.6149 13.6141 19.9363 13.8042 20.1349C13.9949 20.3328 14.3034 20.3328 14.4939 20.1349Z" fill="black"/>
<path d="M12.1855 8.08433C12.1855 11.1636 14.5911 13.669 17.5478 13.669C20.5046 13.669 22.9101 11.1636 22.9101 8.08433C22.9101 5.00503 20.5046 2.49982 17.5478 2.49982C14.5911 2.49982 12.1855 5.00503 12.1855 8.08433V8.08433ZM21.9353 8.08433C21.9353 10.6038 19.9671 12.6536 17.5478 12.6536C15.1286 12.6536 13.1604 10.6038 13.1604 8.08433C13.1604 5.56503 15.1286 3.51527 17.5478 3.51527C19.9671 3.51527 21.9353 5.56503 21.9353 8.08433Z" fill="black"/>
<path d="M8.63552 28.35C8.82447 28.5484 9.13209 28.5506 9.32352 28.3542L11.6869 25.9293C12.0885 25.5112 12.2106 24.8921 12.034 24.3539L12.5424 23.8433C12.8161 23.5679 13.1765 23.4162 13.5574 23.4162H20.038C21.1877 23.4162 22.2744 22.9564 23.0982 22.1214C23.1321 22.0871 22.8409 22.4444 27.5194 16.621C28.2133 15.7661 28.1094 14.4822 27.2877 13.7587C26.4712 13.042 25.2479 13.145 24.5521 13.9853L21.6755 17.0644C21.3123 16.5988 20.7584 16.3086 20.1599 16.3086H14.7239C13.9504 15.9716 13.1296 15.801 12.2828 15.801C9.93533 15.801 7.88561 16.9301 6.78561 19.0471C6.32218 18.9556 5.83342 19.1016 5.4818 19.4678L3.16275 21.8901C2.97341 22.0879 2.97303 22.4079 3.16198 22.6062L8.63552 28.35ZM12.2826 16.8162C13.0292 16.8162 13.7511 16.9727 14.4287 17.2814C14.4904 17.3096 14.5569 17.3241 14.6241 17.3241H20.1599C20.6885 17.3241 21.135 17.773 21.135 18.3393C21.135 18.8993 20.6976 19.3548 20.1599 19.3548H16.1826C15.9134 19.3548 15.6951 19.5821 15.6951 19.8624C15.6951 20.1429 15.9134 20.37 16.1826 20.37H20.1599C21.2352 20.37 22.1098 19.4591 22.1098 18.3393C22.1098 18.25 22.1037 18.1616 22.0927 18.0739C24.8753 15.095 25.2677 14.6764 25.2845 14.6556C25.6319 14.2285 26.2487 14.1743 26.659 14.5346C27.0696 14.8962 27.1216 15.5381 26.7733 15.9676L22.4009 21.4113C21.7624 22.0496 20.9241 22.4009 20.038 22.4009H13.5574C12.9224 22.4009 12.3212 22.6539 11.8652 23.1127L11.4509 23.5291L7.6319 19.5519C8.52447 17.8081 10.1993 16.8162 12.2826 16.8162V16.8162ZM6.1717 20.1853C6.33247 20.0179 6.57932 19.9878 6.77532 20.1139C6.8597 20.1675 6.61742 19.9378 10.9976 24.4931C11.1925 24.6961 11.182 25.0194 11.0003 25.2087L8.98542 27.2759L4.19551 22.2494L6.1717 20.1853Z" fill="black"/>
<path d="M16.9628 5.03816V5.63307C16.3953 5.84255 15.9877 6.40692 15.9877 7.06888C15.9877 7.90858 16.6437 8.59196 17.4502 8.59196C17.7189 8.59196 17.9376 8.81969 17.9376 9.09959C17.9376 9.37949 17.7189 9.60722 17.4502 9.60722C17.242 9.60722 17.017 9.47094 16.8172 9.22318C16.6439 9.00854 16.3365 8.98097 16.1304 9.16128C15.9243 9.3418 15.8976 9.66197 16.0709 9.87661C16.3315 10.1994 16.638 10.4243 16.9628 10.5378V11.1303C16.9628 11.4108 17.181 11.6379 17.4502 11.6379C17.7193 11.6379 17.9376 11.4108 17.9376 11.1303V10.5354C18.505 10.3257 18.9127 9.76135 18.9127 9.09959C18.9127 8.25969 18.2567 7.57651 17.4502 7.57651C17.1814 7.57651 16.9628 7.34878 16.9628 7.06888C16.9628 6.78898 17.1814 6.56105 17.4502 6.56105C17.6229 6.56105 17.8052 6.65289 17.9774 6.82647C18.171 7.02147 18.4795 7.01611 18.6668 6.81476C18.854 6.61322 18.8489 6.29186 18.6555 6.09686C18.4081 5.84751 18.1605 5.70647 17.9376 5.6295V5.03816C17.9376 4.75767 17.7193 4.53033 17.4502 4.53033C17.181 4.53033 16.9628 4.75767 16.9628 5.03816V5.03816Z" fill="black"/>
</svg>
