<svg width="100" height="100" viewBox="0 0 100 100" fill="none" xmlns="http://www.w3.org/2000/svg">
<g clip-path="url(#clip0)">
<circle cx="58" cy="25" r="18" stroke="black" stroke-width="4"/>
<path d="M63 20.2407C63 17.8884 60.7614 15.9815 58 15.9815M58 15.9815C55.2386 15.9815 53 17.8884 53 20.2407C53 22.5931 55.2386 24.5 58 24.5C60.7614 24.5 63 26.4069 63 28.7593C63 31.1116 60.7614 33.0185 58 33.0185M58 15.9815V13M58 33.0185C55.2386 33.0185 53 31.1116 53 28.7593M58 33.0185V36" stroke="black" stroke-width="4" stroke-linecap="round" stroke-linejoin="round"/>
<path d="M43.4999 64.9998H65.4999C68.3877 64.9998 70.7557 62.7742 70.9822 59.9447M70.9822 59.9447L81.7396 47.2022C83.6991 44.8811 87.1691 44.588 89.4902 46.5475C91.8112 48.5069 92.1044 51.977 90.1449 54.298L74.0652 73.345C72.3552 75.3706 69.8391 76.5393 67.1882 76.5393H45.2026C43.0913 76.5393 41.0038 76.9849 39.0767 77.8471L36.4999 79M70.9822 59.9447C71.2344 56.7943 68.6714 53.9998 65.4999 53.9998H49.3638C46.5087 52.7329 43.1262 51.9998 39.4999 51.9998C30.0045 51.9998 22.1799 57.0267 21.1217 63.5M21.1217 63.5L36.4999 79M21.1217 63.5V63.5C19.4649 61.8432 16.7787 61.8431 15.1219 63.5L5.81093 72.8109L27.4999 94.5L36.2403 85.7596C38.0796 83.9203 38.1927 80.975 36.4999 79V79" stroke="black" stroke-width="4" stroke-linecap="round" stroke-linejoin="round"/>
<circle cx="28" cy="83" r="2" stroke="black" stroke-width="4" stroke-linecap="round" stroke-linejoin="round"/>
</g>
<defs>
<clipPath id="clip0">
<rect width="100" height="100" fill="white"/>
</clipPath>
</defs>
</svg>
