<svg width="376" height="236" viewBox="0 0 376 236" fill="none" xmlns="http://www.w3.org/2000/svg">
<rect y="0.753418" width="375.75" height="234.614" rx="14.6634" fill="#953636"/>
<rect opacity="0.2" x="23.8276" y="162.051" width="62.3195" height="20.1622" fill="white"/>
<rect opacity="0.2" x="95.312" y="162.051" width="62.3195" height="20.1622" fill="white"/>
<rect x="32.9924" y="30.0806" width="95.3121" height="31.1597" fill="white"/>
<rect x="40.324" y="196.877" width="117.307" height="20.1622" fill="white"/>
<rect x="166.796" y="196.877" width="117.307" height="20.1622" fill="white"/>
<rect opacity="0.2" x="166.796" y="162.051" width="62.3195" height="20.1622" fill="white"/>
<rect x="238.28" y="162.051" width="62.3195" height="20.1622" fill="white"/>
<circle cx="322.595" cy="44.7436" r="21.9951" fill="white"/>
<path d="M235.957 125.979H239.572V128.682H235.957V134.732H232.627V128.682H220.76V126.731L232.43 108.67H235.957V125.979ZM224.519 125.979H232.627V113.199L232.234 113.915L224.519 125.979ZM253.445 134.732H250.115V112.662L243.439 115.114V112.107L252.926 108.545H253.445V134.732ZM280.223 134.732H263.146V132.351L272.168 122.327C273.504 120.812 274.423 119.583 274.924 118.64C275.437 117.685 275.694 116.701 275.694 115.687C275.694 114.326 275.282 113.211 274.459 112.339C273.636 111.468 272.538 111.033 271.165 111.033C269.519 111.033 268.236 111.504 267.317 112.447C266.41 113.378 265.957 114.678 265.957 116.349H262.645C262.645 113.95 263.415 112.011 264.954 110.532C266.505 109.052 268.576 108.312 271.165 108.312C273.588 108.312 275.503 108.95 276.911 110.227C278.319 111.492 279.023 113.181 279.023 115.293C279.023 117.859 277.388 120.913 274.119 124.458L267.138 132.029H280.223V134.732ZM288.546 120.09H291.034C292.597 120.066 293.826 119.654 294.721 118.855C295.616 118.055 296.064 116.975 296.064 115.615C296.064 112.56 294.542 111.033 291.499 111.033C290.067 111.033 288.922 111.444 288.063 112.268C287.215 113.079 286.792 114.159 286.792 115.508H283.48C283.48 113.443 284.232 111.731 285.736 110.37C287.251 108.998 289.172 108.312 291.499 108.312C293.958 108.312 295.885 108.962 297.281 110.263C298.677 111.564 299.375 113.372 299.375 115.687C299.375 116.82 299.005 117.918 298.265 118.98C297.538 120.042 296.541 120.836 295.276 121.361C296.708 121.814 297.812 122.566 298.588 123.616C299.375 124.666 299.769 125.949 299.769 127.465C299.769 129.804 299.005 131.659 297.478 133.031C295.95 134.404 293.964 135.09 291.517 135.09C289.071 135.09 287.078 134.428 285.539 133.103C284.011 131.778 283.248 130.03 283.248 127.858H286.577C286.577 129.231 287.024 130.329 287.919 131.152C288.814 131.975 290.014 132.387 291.517 132.387C293.116 132.387 294.339 131.969 295.187 131.134C296.034 130.299 296.458 129.1 296.458 127.536C296.458 126.021 295.992 124.857 295.061 124.046C294.131 123.234 292.788 122.817 291.034 122.793H288.546V120.09ZM317.472 128.02C317.472 126.922 317.084 125.997 316.308 125.245C315.545 124.493 314.25 123.813 312.424 123.205C309.882 122.429 308.027 121.421 306.857 120.18C305.7 118.927 305.121 117.339 305.121 115.418C305.121 113.461 305.688 111.856 306.821 110.603C307.967 109.35 309.536 108.604 311.529 108.366V104.446H314.196V108.384C316.201 108.658 317.758 109.499 318.868 110.907C319.99 112.316 320.551 114.243 320.551 116.689H317.257C317.257 115.007 316.857 113.67 316.058 112.68C315.258 111.689 314.178 111.194 312.818 111.194C311.398 111.194 310.312 111.564 309.56 112.304C308.808 113.032 308.432 114.052 308.432 115.364C308.432 116.582 308.826 117.554 309.614 118.282C310.413 118.998 311.72 119.654 313.534 120.251C315.36 120.836 316.78 121.486 317.794 122.202C318.82 122.906 319.572 123.73 320.049 124.672C320.539 125.615 320.783 126.719 320.783 127.984C320.783 130 320.175 131.623 318.957 132.852C317.752 134.082 316.058 134.809 313.874 135.036V138.455H311.225V135.036C309.005 134.833 307.263 134.046 305.998 132.673C304.745 131.289 304.119 129.416 304.119 127.053H307.43C307.43 128.712 307.866 129.989 308.737 130.884C309.608 131.778 310.843 132.226 312.442 132.226C314.005 132.226 315.234 131.85 316.129 131.098C317.024 130.347 317.472 129.32 317.472 128.02Z" fill="white"/>
</svg>
