<svg width="376" height="236" viewBox="0 0 376 236" fill="none" xmlns="http://www.w3.org/2000/svg">
<rect x="0.125122" y="0.753418" width="375.75" height="234.614" rx="14.6634" fill="#364395"/>
<rect opacity="0.2" x="23.9528" y="162.051" width="62.3195" height="20.1622" fill="white"/>
<rect opacity="0.2" x="95.4373" y="162.051" width="62.3195" height="20.1622" fill="white"/>
<rect x="33.1176" y="30.0806" width="95.3121" height="31.1597" fill="white"/>
<rect x="40.449" y="196.877" width="117.307" height="20.1622" fill="white"/>
<rect x="166.921" y="196.877" width="117.307" height="20.1622" fill="white"/>
<rect opacity="0.2" x="166.921" y="162.051" width="62.3195" height="20.1622" fill="white"/>
<rect x="238.405" y="162.051" width="62.3195" height="20.1622" fill="white"/>
<circle cx="322.72" cy="44.7436" r="21.9951" fill="white"/>
<path d="M236.082 125.979H239.697V128.682H236.082V134.732H232.752V128.682H220.885V126.731L232.555 108.67H236.082V125.979ZM224.644 125.979H232.752V113.199L232.359 113.915L224.644 125.979ZM253.57 134.732H250.24V112.662L243.564 115.114V112.107L253.051 108.545H253.57V134.732ZM280.348 134.732H263.271V132.351L272.293 122.327C273.629 120.812 274.548 119.583 275.049 118.64C275.562 117.685 275.819 116.701 275.819 115.687C275.819 114.326 275.407 113.211 274.584 112.339C273.761 111.468 272.663 111.033 271.29 111.033C269.644 111.033 268.361 111.504 267.442 112.447C266.535 113.378 266.082 114.678 266.082 116.349H262.77C262.77 113.95 263.54 112.011 265.079 110.532C266.63 109.052 268.701 108.312 271.29 108.312C273.713 108.312 275.628 108.95 277.036 110.227C278.444 111.492 279.148 113.181 279.148 115.293C279.148 117.859 277.513 120.913 274.244 124.458L267.263 132.029H280.348V134.732ZM288.671 120.09H291.159C292.722 120.066 293.951 119.654 294.846 118.855C295.741 118.055 296.189 116.975 296.189 115.615C296.189 112.56 294.667 111.033 291.624 111.033C290.192 111.033 289.047 111.444 288.188 112.268C287.34 113.079 286.917 114.159 286.917 115.508H283.605C283.605 113.443 284.357 111.731 285.861 110.37C287.376 108.998 289.297 108.312 291.624 108.312C294.083 108.312 296.01 108.962 297.406 110.263C298.802 111.564 299.5 113.372 299.5 115.687C299.5 116.82 299.13 117.918 298.39 118.98C297.663 120.042 296.666 120.836 295.401 121.361C296.833 121.814 297.937 122.566 298.713 123.616C299.5 124.666 299.894 125.949 299.894 127.465C299.894 129.804 299.13 131.659 297.603 133.031C296.075 134.404 294.089 135.09 291.642 135.09C289.196 135.09 287.203 134.428 285.664 133.103C284.136 131.778 283.373 130.03 283.373 127.858H286.702C286.702 129.231 287.149 130.329 288.044 131.152C288.939 131.975 290.139 132.387 291.642 132.387C293.241 132.387 294.464 131.969 295.312 131.134C296.159 130.299 296.583 129.1 296.583 127.536C296.583 126.021 296.117 124.857 295.186 124.046C294.256 123.234 292.913 122.817 291.159 122.793H288.671V120.09ZM317.597 128.02C317.597 126.922 317.209 125.997 316.433 125.245C315.67 124.493 314.375 123.813 312.549 123.205C310.007 122.429 308.152 121.421 306.982 120.18C305.825 118.927 305.246 117.339 305.246 115.418C305.246 113.461 305.813 111.856 306.946 110.603C308.092 109.35 309.661 108.604 311.654 108.366V104.446H314.321V108.384C316.326 108.658 317.883 109.499 318.993 110.907C320.115 112.316 320.676 114.243 320.676 116.689H317.382C317.382 115.007 316.982 113.67 316.183 112.68C315.383 111.689 314.303 111.194 312.943 111.194C311.523 111.194 310.437 111.564 309.685 112.304C308.933 113.032 308.557 114.052 308.557 115.364C308.557 116.582 308.951 117.554 309.739 118.282C310.538 118.998 311.845 119.654 313.659 120.251C315.485 120.836 316.905 121.486 317.919 122.202C318.945 122.906 319.697 123.73 320.174 124.672C320.664 125.615 320.908 126.719 320.908 127.984C320.908 130 320.3 131.623 319.082 132.852C317.877 134.082 316.183 134.809 313.999 135.036V138.455H311.35V135.036C309.13 134.833 307.388 134.046 306.123 132.673C304.87 131.289 304.244 129.416 304.244 127.053H307.555C307.555 128.712 307.991 129.989 308.862 130.884C309.733 131.778 310.968 132.226 312.567 132.226C314.13 132.226 315.359 131.85 316.254 131.098C317.149 130.347 317.597 129.32 317.597 128.02Z" fill="white"/>
</svg>
