<svg width="376" height="236" viewBox="0 0 376 236" fill="none" xmlns="http://www.w3.org/2000/svg">
<rect x="0.250244" y="0.753418" width="375.75" height="234.614" rx="14.6634" fill="black"/>
<rect opacity="0.2" x="24.0779" y="162.051" width="62.3195" height="20.1622" fill="white"/>
<rect opacity="0.2" x="95.5624" y="162.051" width="62.3195" height="20.1622" fill="white"/>
<rect x="33.2427" y="30.0806" width="95.3121" height="31.1597" fill="white"/>
<rect x="40.5741" y="196.877" width="117.307" height="20.1622" fill="white"/>
<rect x="167.046" y="196.877" width="117.307" height="20.1622" fill="white"/>
<rect opacity="0.2" x="167.046" y="162.051" width="62.3195" height="20.1622" fill="white"/>
<rect x="238.53" y="162.051" width="62.3195" height="20.1622" fill="white"/>
<circle cx="322.845" cy="44.7436" r="21.9951" fill="white"/>
<path d="M236.207 125.979H239.823V128.682H236.207V134.732H232.877V128.682H221.01V126.731L232.681 108.67H236.207V125.979ZM224.769 125.979H232.877V113.199L232.484 113.915L224.769 125.979ZM253.695 134.732H250.365V112.662L243.689 115.114V112.107L253.176 108.545H253.695V134.732ZM280.473 134.732H263.396V132.351L272.418 122.327C273.754 120.812 274.673 119.583 275.174 118.64C275.688 117.685 275.944 116.701 275.944 115.687C275.944 114.326 275.532 113.211 274.709 112.339C273.886 111.468 272.788 111.033 271.415 111.033C269.769 111.033 268.486 111.504 267.567 112.447C266.66 113.378 266.207 114.678 266.207 116.349H262.895C262.895 113.95 263.665 112.011 265.204 110.532C266.756 109.052 268.826 108.312 271.415 108.312C273.838 108.312 275.753 108.95 277.161 110.227C278.569 111.492 279.273 113.181 279.273 115.293C279.273 117.859 277.639 120.913 274.369 124.458L267.388 132.029H280.473V134.732ZM288.796 120.09H291.284C292.847 120.066 294.076 119.654 294.971 118.855C295.866 118.055 296.314 116.975 296.314 115.615C296.314 112.56 294.792 111.033 291.749 111.033C290.318 111.033 289.172 111.444 288.313 112.268C287.465 113.079 287.042 114.159 287.042 115.508H283.73C283.73 113.443 284.482 111.731 285.986 110.37C287.501 108.998 289.423 108.312 291.749 108.312C294.208 108.312 296.135 108.962 297.531 110.263C298.927 111.564 299.625 113.372 299.625 115.687C299.625 116.82 299.255 117.918 298.516 118.98C297.788 120.042 296.791 120.836 295.526 121.361C296.958 121.814 298.062 122.566 298.838 123.616C299.625 124.666 300.019 125.949 300.019 127.465C300.019 129.804 299.255 131.659 297.728 133.031C296.201 134.404 294.214 135.09 291.767 135.09C289.321 135.09 287.328 134.428 285.789 133.103C284.261 131.778 283.498 130.03 283.498 127.858H286.827C286.827 129.231 287.275 130.329 288.17 131.152C289.065 131.975 290.264 132.387 291.767 132.387C293.366 132.387 294.59 131.969 295.437 131.134C296.284 130.299 296.708 129.1 296.708 127.536C296.708 126.021 296.242 124.857 295.312 124.046C294.381 123.234 293.038 122.817 291.284 122.793H288.796V120.09ZM317.722 128.02C317.722 126.922 317.334 125.997 316.558 125.245C315.795 124.493 314.5 123.813 312.674 123.205C310.132 122.429 308.277 121.421 307.107 120.18C305.95 118.927 305.371 117.339 305.371 115.418C305.371 113.461 305.938 111.856 307.072 110.603C308.217 109.35 309.786 108.604 311.779 108.366V104.446H314.446V108.384C316.451 108.658 318.008 109.499 319.118 110.907C320.24 112.316 320.801 114.243 320.801 116.689H317.507C317.507 115.007 317.107 113.67 316.308 112.68C315.508 111.689 314.428 111.194 313.068 111.194C311.648 111.194 310.562 111.564 309.81 112.304C309.058 113.032 308.683 114.052 308.683 115.364C308.683 116.582 309.076 117.554 309.864 118.282C310.663 118.998 311.97 119.654 313.784 120.251C315.61 120.836 317.03 121.486 318.044 122.202C319.07 122.906 319.822 123.73 320.299 124.672C320.789 125.615 321.033 126.719 321.033 127.984C321.033 130 320.425 131.623 319.208 132.852C318.002 134.082 316.308 134.809 314.124 135.036V138.455H311.475V135.036C309.255 134.833 307.513 134.046 306.248 132.673C304.995 131.289 304.369 129.416 304.369 127.053H307.68C307.68 128.712 308.116 129.989 308.987 130.884C309.858 131.778 311.093 132.226 312.692 132.226C314.255 132.226 315.484 131.85 316.379 131.098C317.274 130.347 317.722 129.32 317.722 128.02Z" fill="white"/>
</svg>
