<svg width="8" height="12" viewBox="0 0 8 12" fill="none" xmlns="http://www.w3.org/2000/svg">
<path d="M3.25716 5.82482L7.71465 9.94007C7.83739 10.0531 7.90491 10.2043 7.90491 10.3654C7.90491 10.5267 7.83739 10.6777 7.71465 10.7909L7.32406 11.1513C7.20152 11.2647 7.03771 11.3271 6.86314 11.3271C6.68858 11.3271 6.52496 11.2647 6.40232 11.1513L1.09497 6.25177C0.971848 6.13819 0.904425 5.98643 0.904909 5.82509C0.904425 5.66304 0.971751 5.51146 1.09497 5.39779L6.39738 0.502971C6.52002 0.389572 6.68364 0.327149 6.8583 0.327149C7.03286 0.327149 7.19648 0.389572 7.31922 0.502971L7.70971 0.863377C7.96381 1.09795 7.96381 1.47982 7.70971 1.71431L3.25716 5.82482Z" fill="#76797B"/>
</svg>
