<svg width="48" height="48" viewBox="0 0 48 48" fill="none" xmlns="http://www.w3.org/2000/svg">
<circle opacity="0.5" cx="23.7283" cy="24.0253" r="23.3803" fill="white"/>
<path d="M25.4576 24.0219L18.7413 30.2225C18.5564 30.3929 18.4547 30.6206 18.4547 30.8634C18.4547 31.1064 18.5564 31.3339 18.7413 31.5045L19.3299 32.0476C19.5145 32.2184 19.7613 32.3125 20.0243 32.3125C20.2874 32.3125 20.5339 32.2184 20.7187 32.0476L28.7155 24.6652C28.901 24.4941 29.0026 24.2654 29.0019 24.0223C29.0026 23.7782 28.9011 23.5498 28.7155 23.3785L20.7261 16.0033C20.5413 15.8324 20.2948 15.7383 20.0316 15.7383C19.7686 15.7383 19.5221 15.8324 19.3372 16.0033L18.7488 16.5463C18.3659 16.8997 18.3659 17.4751 18.7488 17.8284L25.4576 24.0219Z" fill="#2E3B88"/>
</svg>
