<svg width="48" height="48" viewBox="0 0 48 48" fill="none" xmlns="http://www.w3.org/2000/svg">
<circle opacity="0.5" r="23.3803" transform="matrix(-1 0 0 1 23.7283 23.6313)" fill="white"/>
<path d="M21.999 23.6279L28.7152 29.8285C28.9002 29.9988 29.0019 30.2265 29.0019 30.4694C29.0019 30.7123 28.9002 30.9399 28.7152 31.1105L28.1267 31.6535C27.9421 31.8244 27.6953 31.9185 27.4322 31.9185C27.1692 31.9185 26.9227 31.8244 26.7379 31.6535L18.7411 24.2712C18.5556 24.1 18.454 23.8714 18.4547 23.6283C18.454 23.3841 18.5554 23.1557 18.7411 22.9844L26.7305 15.6092C26.9152 15.4384 27.1618 15.3443 27.4249 15.3443C27.688 15.3443 27.9345 15.4384 28.1194 15.6092L28.7078 16.1523C29.0907 16.5057 29.0907 17.0811 28.7078 17.4344L21.999 23.6279Z" fill="#2E3B88"/>
</svg>
