<svg width="26" height="26" viewBox="0 0 26 26" fill="none" xmlns="http://www.w3.org/2000/svg">
<path d="M1.06447 13.0699C1.05015 13.036 1.04269 13.0131 1.03888 12.9999C1.04269 12.9868 1.05015 12.9639 1.06447 12.93C1.09586 12.8556 1.1484 12.7555 1.22694 12.6303C1.38367 12.3804 1.62325 12.0632 1.94126 11.7002C2.57597 10.9758 3.49651 10.0994 4.62062 9.25356C6.87927 7.55402 9.89017 6.0293 13 6.0293C16.1074 6.0293 19.1175 7.58 21.3778 9.29469C22.5024 10.1478 23.424 11.0284 24.0599 11.7491C24.3785 12.1102 24.619 12.424 24.7765 12.668C24.8555 12.7905 24.9081 12.887 24.9393 12.9572C24.9472 12.9749 24.9528 12.9891 24.9568 12.9999C24.9528 13.0108 24.9472 13.025 24.9393 13.0427C24.9081 13.1129 24.8555 13.2094 24.7765 13.3319C24.619 13.5759 24.3785 13.8897 24.0599 14.2507C23.424 14.9714 22.5024 15.8521 21.3778 16.7052C19.1175 18.4199 16.1074 19.9706 13 19.9706C9.89017 19.9706 6.87927 18.4459 4.62062 16.7463C3.49651 15.9005 2.57597 15.0241 1.94126 14.2997C1.62325 13.9367 1.38367 13.6195 1.22694 13.3696C1.1484 13.2444 1.09586 13.1443 1.06447 13.0699Z" stroke="black"/>
<circle cx="13" cy="13" r="3.8013" stroke="black"/>
</svg>
