<svg width="130" height="131" viewBox="0 0 130 131" fill="none" xmlns="http://www.w3.org/2000/svg">
<path d="M78.3607 47.2755V85.9364C78.3607 86.1621 78.5437 86.3451 78.7694 86.3451H96.0293C96.7195 86.3451 97.0677 87.1773 96.5832 87.6689L65.5538 119.148C65.2492 119.457 64.7506 119.457 64.446 119.148L33.4165 87.6689C32.932 87.1773 33.2802 86.3451 33.9704 86.3451H51.2303C51.4561 86.3451 51.639 86.1621 51.639 85.9364V47.2755C51.639 39.8965 57.6209 33.9147 64.9999 33.9147C72.3789 33.9147 78.3607 39.8965 78.3607 47.2755Z" stroke="#08D5E8" stroke-width="6"/>
<path d="M65 11.7905C42.3635 11.7905 24.0129 30.1411 24.0129 52.7776C24.0129 58.1083 25.0306 63.2014 26.8822 67.8731H37.7573" stroke="#08D5E8" stroke-width="6" stroke-linecap="round" stroke-linejoin="round"/>
<path d="M65 11.7905C87.6365 11.7905 105.987 30.1411 105.987 52.7776C105.987 58.1083 104.969 63.2014 103.118 67.8731H92.2427" stroke="#08D5E8" stroke-width="6" stroke-linecap="round" stroke-linejoin="round"/>
</svg>
