<svg width="130" height="131" viewBox="0 0 130 131" fill="none" xmlns="http://www.w3.org/2000/svg">
<path d="M78.3607 84.225V45.5641C78.3607 45.3383 78.5437 45.1554 78.7694 45.1554H96.0293C96.7196 45.1554 97.0678 44.3232 96.5832 43.8316L65.5538 12.3525C65.2492 12.0434 64.7506 12.0434 64.446 12.3525L33.4166 43.8316C32.932 44.3232 33.2802 45.1554 33.9705 45.1554H51.2304C51.4561 45.1554 51.6391 45.3383 51.6391 45.5641V84.225C51.6391 91.604 57.6209 97.5858 64.9999 97.5858C72.3789 97.5858 78.3607 91.604 78.3607 84.225Z" stroke="#2D3A85" stroke-width="6"/>
<path d="M65 119.71C42.3635 119.71 24.0129 101.359 24.0129 78.7229C24.0129 73.3921 25.0306 68.2991 26.8822 63.6274H37.7573" stroke="#2D3A85" stroke-width="6" stroke-linecap="round" stroke-linejoin="round"/>
<path d="M65 119.71C87.6365 119.71 105.987 101.359 105.987 78.7229C105.987 73.3921 104.969 68.2991 103.118 63.6274H92.2427" stroke="#2D3A85" stroke-width="6" stroke-linecap="round" stroke-linejoin="round"/>
</svg>
