<svg width="32" height="32" viewBox="0 0 32 32" fill="none" xmlns="http://www.w3.org/2000/svg">
<path d="M23.8704 8.5H26.9444C27.8036 8.5 28.5 9.19645 28.5 10.0556V14.9024M8.59259 8.5H5.05555C4.19645 8.5 3.5 9.19645 3.5 10.0556V27.9444C3.5 28.8036 4.19645 29.5 5.05555 29.5H26.9444C27.8036 29.5 28.5 28.8036 28.5 27.9444V19.7683" stroke="#08D5E8" stroke-width="1.55555" stroke-linecap="round" stroke-linejoin="round"/>
<path d="M19.8594 3.27778V15.7778C19.8594 16.2073 20.2076 16.5556 20.6372 16.5556H23.5393C24.2436 16.5556 24.5852 17.4168 24.0725 17.8996L16.5332 24.998C16.2337 25.28 15.7663 25.28 15.4668 24.998L7.92754 17.8996C7.41477 17.4168 7.75643 16.5556 8.4607 16.5556H11.3628C11.7924 16.5556 12.1406 16.2073 12.1406 15.7778V3.27778C12.1406 2.84822 12.4888 2.5 12.9184 2.5H19.0816C19.5112 2.5 19.8594 2.84822 19.8594 3.27778Z" stroke="#08D5E8" stroke-width="1.55555"/>
</svg>
