<svg width="32" height="33" viewBox="0 0 32 33" fill="none" xmlns="http://www.w3.org/2000/svg">
<path d="M9.38888 15.0034H7.05555C6.19644 15.0034 5.5 15.6999 5.5 16.559V19.8645M22.2222 15.0034H24.9444C25.8035 15.0034 26.5 15.6999 26.5 16.559V29.3923C26.5 30.2514 25.8035 30.9478 24.9444 30.9478H7.05555C6.19644 30.9478 5.5 30.2514 5.5 29.3923V23.559" stroke="#2D3A85" stroke-width="1.55555" stroke-linecap="round" stroke-linejoin="round"/>
<path d="M19.6338 24.7254V12.0218C19.6338 11.5922 19.982 11.244 20.4115 11.244H23.0858C23.776 11.244 24.1242 10.4118 23.6397 9.92021L16.554 2.73186C16.2494 2.42283 15.7508 2.42283 15.4462 2.73186L8.36053 9.92021C7.87599 10.4118 8.22421 11.244 8.91444 11.244H11.5886C12.0182 11.244 12.3664 11.5922 12.3664 12.0218V24.7254C12.3664 25.155 12.7146 25.5032 13.1442 25.5032H18.856C19.2856 25.5032 19.6338 25.155 19.6338 24.7254Z" stroke="#2D3A85" stroke-width="1.55555"/>
</svg>
