<svg width="97" height="96" viewBox="0 0 97 96" fill="none" xmlns="http://www.w3.org/2000/svg">
<g clip-path="url(#clip0)">
<path d="M93.2669 13.1242C91.8547 11.7095 89.5633 11.7071 88.151 13.1182L44.7461 56.4086L29.0857 39.3999C27.7325 37.931 25.4446 37.8358 23.9733 39.1888C22.5031 40.542 22.409 42.831 23.7622 44.3011L41.9733 64.0788C42.6403 64.8037 43.5736 65.2246 44.5578 65.2451C44.5843 65.2462 44.6098 65.2462 44.6351 65.2462C45.5915 65.2462 46.5116 64.8663 47.1894 64.191L93.2598 18.2413C94.6756 16.8303 94.6781 14.5389 93.2669 13.1242Z" fill="#08D5E8"/>
<path d="M92.3938 44.3818C90.3954 44.3818 88.7758 46.0014 88.7758 48C88.7758 70.4781 70.49 88.7638 48.012 88.7638C25.5352 88.7638 7.24815 70.4781 7.24815 48C7.24815 25.5233 25.5352 7.23619 48.012 7.23619C50.0103 7.23619 51.6301 5.61656 51.6301 3.61819C51.6301 1.61963 50.0103 0 48.012 0C21.5445 0 0.0119629 21.5325 0.0119629 48C0.0119629 74.4664 21.5445 96 48.012 96C74.4783 96 96.012 74.4664 96.012 48C96.012 46.0016 94.3923 44.3818 92.3938 44.3818Z" fill="#08D5E8"/>
</g>
<defs>
<clipPath id="clip0">
<rect x="0.0119629" width="96" height="96" fill="white"/>
</clipPath>
</defs>
</svg>
