<svg width="96" height="97" viewBox="0 0 96 97" fill="none" xmlns="http://www.w3.org/2000/svg">
<g clip-path="url(#clip0)">
<path d="M93.255 13.8742C91.8428 12.4595 89.5513 12.4571 88.1391 13.8682L44.7341 57.1586L29.0738 40.1499C27.7206 38.681 25.4327 38.5858 23.9614 39.9388C22.4912 41.292 22.3971 43.581 23.7503 45.0511L41.9614 64.8288C42.6283 65.5537 43.5617 65.9746 44.5459 65.9951C44.5723 65.9962 44.5978 65.9962 44.6231 65.9962C45.5796 65.9962 46.4996 65.6163 47.1775 64.941L93.2479 18.9913C94.6637 17.5803 94.6661 15.2889 93.255 13.8742Z" fill="#72BAEB"/>
<path d="M92.3818 45.1318C90.3834 45.1318 88.7638 46.7514 88.7638 48.75C88.7638 71.2281 70.4781 89.5138 48 89.5138C25.5233 89.5138 7.23619 71.2281 7.23619 48.75C7.23619 26.2733 25.5233 7.98619 48 7.98619C49.9984 7.98619 51.6182 6.36656 51.6182 4.36819C51.6182 2.36963 49.9984 0.75 48 0.75C21.5325 0.75 0 22.2825 0 48.75C0 75.2164 21.5325 96.75 48 96.75C74.4664 96.75 96 75.2164 96 48.75C96 46.7516 94.3804 45.1318 92.3818 45.1318Z" fill="#72BAEB"/>
</g>
<defs>
<clipPath id="clip0">
<rect y="0.75" width="96" height="96" fill="white"/>
</clipPath>
</defs>
</svg>
