<svg width="100" height="100" viewBox="0 0 100 100" fill="none" xmlns="http://www.w3.org/2000/svg">
<g clip-path="url(#clip0)">
<path fill-rule="evenodd" clip-rule="evenodd" d="M12 7C9.23858 7 7 9.23858 7 12V88C7 90.7614 9.23858 93 12 93H88C90.7614 93 93 90.7614 93 88V12C93 9.23858 90.7614 7 88 7H12ZM50 87C70.4345 87 87 70.4345 87 50C87 29.5655 70.4345 13 50 13C29.5655 13 13 29.5655 13 50C13 70.4345 29.5655 87 50 87Z" fill="#DACFAA"/>
<path d="M34.0654 28.3715C34.7434 28.0591 35.5424 28.1807 36.097 28.6805L39.0233 31.2715C39.1029 31.3423 39.223 31.3419 39.3021 31.2706L43.2837 27.7095C44.0038 27.0643 45.094 27.0643 45.8141 27.7095L49.7921 31.2674C49.8722 31.3389 49.9931 31.3389 50.0731 31.2674L54.0515 27.7095C54.7716 27.0644 55.8618 27.0644 56.5819 27.7095L60.564 31.2706C60.6438 31.3419 60.7642 31.3422 60.8443 31.2714L63.7732 28.6805C64.5503 27.9895 65.7404 28.0591 66.4314 28.8362C66.7413 29.1846 66.9108 29.6357 66.9072 30.1019V68.9535C66.9142 69.995 66.0756 70.8449 65.0341 70.8518C64.5676 70.855 64.1165 70.685 63.768 70.3749L60.8416 67.7839C60.762 67.7131 60.642 67.7135 60.5628 67.7848L56.5812 71.3459C55.8611 71.9911 54.7709 71.9911 54.0508 71.3459L50.0724 67.788C49.9923 67.7165 49.8714 67.7165 49.7914 67.788L45.813 71.3458C45.0927 71.9907 44.0027 71.9907 43.2826 71.3458L39.3002 67.7846C39.2205 67.7134 39.1001 67.7131 39.02 67.7839L36.0911 70.3748C35.3137 71.0655 34.1237 70.9953 33.433 70.2179C33.1236 69.8698 32.9543 69.4193 32.9577 68.9535V30.1019C32.9478 29.3556 33.3834 28.675 34.0654 28.3715ZM59.9268 42.3582H49.4271C48.9613 42.3582 48.5836 42.7359 48.5836 43.2017C48.5836 43.6675 48.9613 44.0452 49.4271 44.0452H59.9268C60.3926 44.0452 60.7703 43.6675 60.7703 43.2017C60.7703 42.7359 60.3926 42.3582 59.9268 42.3582ZM39.9381 56.6972H59.9268C60.3926 56.6972 60.7703 56.3195 60.7703 55.8537C60.7703 55.3879 60.3926 55.0102 59.9268 55.0102H39.9381C39.4723 55.0102 39.0946 55.3879 39.0946 55.8537C39.0946 56.3195 39.4723 56.6972 39.9381 56.6972ZM39.9381 50.3712H59.9268C60.3926 50.3712 60.7703 49.9935 60.7703 49.5277C60.7703 49.0619 60.3926 48.6842 59.9268 48.6842H39.9381C39.4723 48.6842 39.0946 49.0619 39.0946 49.5277C39.0946 49.9935 39.4723 50.3712 39.9381 50.3712Z" fill="#DACFAA"/>
</g>
<defs>
<clipPath id="clip0">
<rect width="100" height="100" fill="white"/>
</clipPath>
</defs>
</svg>
