<svg width="100" height="100" viewBox="0 0 100 100" fill="none" xmlns="http://www.w3.org/2000/svg">
<g clip-path="url(#clip0)">
<path fill-rule="evenodd" clip-rule="evenodd" d="M12 7C9.23858 7 7 9.23858 7 12V88C7 90.7614 9.23858 93 12 93H88C90.7614 93 93 90.7614 93 88V12C93 9.23858 90.7614 7 88 7H12ZM50 87C70.4345 87 87 70.4345 87 50C87 29.5655 70.4345 13 50 13C29.5655 13 13 29.5655 13 50C13 70.4345 29.5655 87 50 87Z" fill="#6775BB"/>
<path d="M72.1008 38.5556L50.4484 28.8036C50.1583 28.6729 49.8418 28.6729 49.5517 28.8036L27.8993 38.5556C27.361 38.798 27.0007 39.4471 27 40.1759C26.9993 40.9046 27.3584 41.5547 27.8963 41.7988L49.5486 51.6248C49.6946 51.6911 49.8474 51.7243 50 51.7243C50.1527 51.7243 50.3054 51.6911 50.4514 51.6248L72.1037 41.7988C72.6416 41.5547 73.0006 40.9046 73 40.1759C72.9993 39.4471 72.639 38.798 72.1008 38.5556Z" fill="#6775BB"/>
<path d="M69.7632 58.1092V46.5127L67.0679 47.458V58.1092C66.256 58.5702 65.709 59.4339 65.709 60.4244C65.709 61.4147 66.256 62.2785 67.0679 62.7395V69.2731C67.0679 70.0073 67.6713 70.6025 68.4155 70.6025C69.1598 70.6025 69.7632 70.0073 69.7632 69.2731V62.7396C70.575 62.2787 71.1221 61.4148 71.1221 60.4245C71.1221 59.434 70.5751 58.5702 69.7632 58.1092Z" fill="#6775BB"/>
<path d="M50 55.1649C49.5374 55.1649 49.0818 55.0645 48.6458 54.8667L36.4735 49.3428V56.913C36.4735 58.7651 37.9871 60.3314 40.9723 61.5682C43.5742 62.6462 46.7804 63.24 50 63.24C53.2197 63.24 56.4257 62.6462 59.0278 61.5682C62.0129 60.3314 63.5265 58.7651 63.5265 56.913V49.3428L51.3543 54.8667C50.9182 55.0645 50.4626 55.1649 50 55.1649Z" fill="#6775BB"/>
</g>
<defs>
<clipPath id="clip0">
<rect width="100" height="100" fill="white"/>
</clipPath>
</defs>
</svg>
