<svg width="100" height="100" viewBox="0 0 100 100" fill="none" xmlns="http://www.w3.org/2000/svg">
<g clip-path="url(#clip0)">
<rect x="7" y="7" width="86" height="86" rx="5" fill="#EB522B"/>
<path d="M87 50C87 70.4345 70.4345 87 50 87C29.5655 87 13 70.4345 13 50C13 29.5655 29.5655 13 50 13C70.4345 13 87 29.5655 87 50Z" fill="white"/>
<path d="M45.421 32.317V33.4996C47.0622 33.3884 47.9409 33.5215 48.0321 33.5365C48.5604 33.6227 49.0115 33.964 49.2388 34.4483L51.5451 39.3636C51.8241 39.4287 52.0899 39.5664 52.3097 39.7808C52.5879 40.0519 52.9209 40.2642 53.2982 40.3563C54.0517 40.54 54.7993 40.3306 55.3276 39.8168C55.8728 39.2869 56.7046 39.1521 57.3474 39.5585C58.2662 40.139 58.3649 41.3689 57.6442 42.0896C56.6275 43.1067 55.2753 43.6669 53.8369 43.6669C53.7444 43.6669 53.6524 43.6644 53.5603 43.6599L56.6607 50.2682C56.7917 50.5469 56.9157 50.8276 57.0335 51.1096C60.5244 50.0087 64.4952 50.8264 67.2696 53.5693C67.89 54.1822 67.9588 55.1831 67.3791 55.835C67.0553 56.1991 66.6099 56.3811 66.1646 56.3811C65.7495 56.3811 65.334 56.2227 65.0177 55.9059C63.1372 54.0258 60.4374 53.454 58.0572 54.1876C58.9599 57.7868 58.8998 61.5013 57.9681 64.9844C58.4068 65.1295 58.8534 65.2589 59.307 65.3717C59.8336 65.5023 60.3839 65.5035 60.9109 65.3733C69.0245 63.3664 74.8023 56.0697 74.8023 47.6161V32.317C74.8023 31.5594 74.3346 30.8802 73.6255 30.6135C71.3909 29.7739 67.0723 28.6323 60.1123 28.6323C53.1519 28.6323 48.8328 29.7743 46.5978 30.614C45.8888 30.8802 45.421 31.5594 45.421 32.317V32.317ZM63.3578 39.7953C63.9914 39.1617 65.0185 39.1617 65.6525 39.7953C66.0564 40.1991 66.5933 40.4218 67.1647 40.4218C67.7361 40.4218 68.2735 40.1991 68.6774 39.7953C69.311 39.1613 70.3385 39.1613 70.9721 39.7953C71.6057 40.4289 71.6057 41.456 70.9721 42.0896C69.955 43.1067 68.6032 43.6669 67.1647 43.6669C65.7267 43.6669 64.3745 43.1067 63.3574 42.0896C62.7242 41.456 62.7242 40.4289 63.3578 39.7953V39.7953Z" fill="#EB522B"/>
<path d="M53.7233 51.6463L47.1904 37.7222C46.8897 37.0811 46.2238 36.6951 45.5177 36.7486C43.1587 36.9269 38.7339 37.7093 32.3606 40.6994C26.0591 43.6559 22.634 46.5241 20.9675 48.2333C20.4389 48.7757 20.3037 49.5892 20.6255 50.2751L27.1235 64.1258C30.714 71.7787 39.0449 75.9306 47.243 74.301C47.773 74.1957 48.2689 73.9631 48.6885 73.6227C55.182 68.3599 57.3138 59.2996 53.7233 51.6463V51.6463ZM40.5944 50.6084C41.6033 47.8162 44.6958 46.3649 47.4881 47.3741C48.3307 47.6785 48.7669 48.6086 48.4625 49.4516C48.1582 50.2941 47.2281 50.7308 46.3851 50.426C45.2759 50.0254 44.0473 50.6018 43.6463 51.711C43.4075 52.372 42.7847 52.7829 42.1204 52.7829C41.9371 52.7829 41.7509 52.7518 41.5689 52.6859C40.7263 52.3811 40.2897 51.451 40.5944 50.6084V50.6084ZM34.3195 56.0869C33.7821 55.8928 33.2011 55.9194 32.6836 56.1623C32.1666 56.4049 31.7747 56.8345 31.5807 57.3719C31.3418 58.0329 30.7186 58.4438 30.0543 58.4438C29.8714 58.4438 29.6853 58.4123 29.5032 58.3468C28.6602 58.0424 28.224 57.1123 28.5284 56.2693C29.0173 54.9167 30.0033 53.8353 31.3053 53.2245C32.6078 52.6137 34.0694 52.5461 35.422 53.035C36.265 53.3394 36.7012 54.2694 36.3969 55.1124C36.0921 55.955 35.162 56.3912 34.3195 56.0869ZM39.7676 66.6929C38.6211 66.6929 37.4563 66.4981 36.3173 66.0863C35.4743 65.7819 35.0381 64.8519 35.3424 64.0089C35.6472 63.1663 36.5768 62.7297 37.4198 63.0344C41.0178 64.3344 45.0026 62.4647 46.3026 58.8671C46.607 58.0241 47.537 57.5879 48.38 57.8923C49.2226 58.1971 49.6588 59.1271 49.3545 59.9701C47.858 64.1113 43.937 66.6929 39.7676 66.6929V66.6929Z" fill="#EB522B"/>
</g>
<defs>
<clipPath id="clip0">
<rect width="100" height="100" fill="white"/>
</clipPath>
</defs>
</svg>
