<svg width="100" height="100" viewBox="0 0 100 100" fill="none" xmlns="http://www.w3.org/2000/svg">
<g clip-path="url(#clip0)">
<rect x="7" y="7" width="86" height="86" rx="5" fill="#2DBFA0"/>
<path d="M87 50C87 70.4345 70.4345 87 50 87C29.5655 87 13 70.4345 13 50C13 29.5655 29.5655 13 50 13C70.4345 13 87 29.5655 87 50Z" fill="white"/>
<path d="M63.6553 58.9341C63.7847 58.8563 63.8958 58.7547 63.9893 58.638C68.9959 57.0557 72.7011 51.5445 72.7011 45.0071C72.7011 40.6029 70.286 32.2367 70.1831 31.8827C70.016 31.3075 69.5469 30.9194 69.0186 30.9194H53.0608C52.5325 30.9194 52.0634 31.3075 51.8963 31.8827C51.7934 32.2367 49.3783 40.6029 49.3783 45.0071C49.3783 51.5445 53.0836 57.0557 58.0901 58.6379C58.1836 58.7547 58.2947 58.8562 58.4241 58.934C59.2803 59.4487 59.8122 60.4577 59.8122 61.5672V70.365C59.8122 71.9186 58.7109 73.1826 57.3572 73.1826H54.9021C54.2242 73.1826 53.6746 73.8133 53.6746 74.5913C53.6746 75.3693 54.2242 76.0001 54.9021 76.0001H67.1773C67.8553 76.0001 68.4048 75.3693 68.4048 74.5913C68.4048 73.8133 67.8553 73.1826 67.1773 73.1826H64.7223C63.3685 73.1826 62.2672 71.9186 62.2672 70.365V61.5672C62.2672 60.4577 62.7991 59.4487 63.6553 58.9341ZM51.8333 45.0071C51.8333 41.8665 53.3321 36.0328 53.957 33.737H68.1226C68.7476 36.0322 70.2461 41.8635 70.2461 45.0071C70.2461 51.2216 66.1161 56.2773 61.0397 56.2773C55.9633 56.2773 51.8333 51.2216 51.8333 45.0071Z" fill="#2DBFA0"/>
<path d="M32.9144 73.904L32.4078 43.6397C32.3835 42.1891 33.5528 41.0001 35.0037 41.0001C36.4517 41.0001 37.6198 42.1846 37.5996 43.6325L37.1775 73.898C37.1612 75.0637 36.2116 76.0001 35.0459 76.0001C33.8824 76.0001 32.9339 75.0673 32.9144 73.904Z" fill="#2DBFA0"/>
<path d="M36.0856 31.3512C36.0856 30.7309 35.5827 30.228 34.9624 30.228V30.228C34.3421 30.228 33.8392 30.7309 33.8392 31.3512V39.6847C33.8392 40.1809 33.4369 40.5832 32.9407 40.5832C32.4444 40.5832 32.0421 40.1809 32.0421 39.6847V31.7465C32.0421 31.0678 31.3624 30.6025 30.8753 31.0749C30.3726 31.5625 30.0389 32.2261 29.9752 32.9729L29.1186 43.0108C28.9691 44.762 30.3502 46.2659 32.1077 46.2659H37.938C39.6787 46.2659 41.0539 44.7894 40.9305 43.0531L40.2166 33.0152C40.1487 32.0611 39.6398 31.2375 38.8978 30.738C38.3774 30.3878 37.7879 30.8621 37.7879 31.4894V39.732C37.7879 40.2021 37.4068 40.5832 36.9367 40.5832C36.4666 40.5832 36.0856 40.2021 36.0856 39.732V31.3512Z" fill="#2DBFA0"/>
<path fill-rule="evenodd" clip-rule="evenodd" d="M53.8718 46.4197C54.4261 50.6511 57.4294 53.8941 61.0397 53.8941C65.0427 53.8941 68.2993 49.9075 68.2993 45.0072C68.2993 44.4167 68.2323 43.706 68.1235 42.9414L53.8718 46.4197Z" fill="#2DBFA0"/>
</g>
<defs>
<clipPath id="clip0">
<rect width="100" height="100" fill="white"/>
</clipPath>
</defs>
</svg>
