<svg width="100" height="100" viewBox="0 0 100 100" fill="none" xmlns="http://www.w3.org/2000/svg">
<g clip-path="url(#clip0)">
<path fill-rule="evenodd" clip-rule="evenodd" d="M12 7C9.23858 7 7 9.23858 7 12V88C7 90.7614 9.23858 93 12 93H88C90.7614 93 93 90.7614 93 88V12C93 9.23858 90.7614 7 88 7H12ZM50 87C70.4345 87 87 70.4345 87 50C87 29.5655 70.4345 13 50 13C29.5655 13 13 29.5655 13 50C13 70.4345 29.5655 87 50 87Z" fill="#69D1D1"/>
<rect x="28.4336" y="39.1484" width="43.1328" height="21.7024" rx="5" fill="#69D1D1"/>
<rect x="60.8512" y="28.4331" width="43.1328" height="21.7024" rx="5" transform="rotate(90 60.8512 28.4331)" fill="#69D1D1"/>
</g>
<defs>
<clipPath id="clip0">
<rect width="100" height="100" fill="white"/>
</clipPath>
</defs>
</svg>
