<svg width="100" height="100" viewBox="0 0 100 100" fill="none" xmlns="http://www.w3.org/2000/svg">
<g clip-path="url(#clip0)">
<rect x="7" y="7" width="86" height="86" rx="5" fill="#E8B531"/>
<path d="M87 50C87 70.4345 70.4345 87 50 87C29.5655 87 13 70.4345 13 50C13 29.5655 29.5655 13 50 13C70.4345 13 87 29.5655 87 50Z" fill="white"/>
<path d="M34.6052 44.72H28.4445C27.7158 44.72 27.1244 44.1286 27.1244 43.3998V38.9993C27.1244 38.2706 27.7158 37.6792 28.4445 37.6792H34.6052C35.334 37.6792 35.9254 38.2706 35.9254 38.9993V43.3998C35.9254 44.1286 35.334 44.72 34.6052 44.72Z" fill="#E8B531"/>
<path d="M34.6052 62.3216H28.4445C27.7158 62.3216 27.1244 61.7301 27.1244 61.0014V56.6009C27.1244 55.8722 27.7158 55.2808 28.4445 55.2808H34.6052C35.334 55.2808 35.9254 55.8722 35.9254 56.6009V61.0014C35.9254 61.7301 35.334 62.3216 34.6052 62.3216Z" fill="#E8B531"/>
<path d="M64.5286 28.8779H35.0453C32.375 28.8779 30.2047 31.0483 30.2047 33.7185V35.9187H34.6052C36.3038 35.9187 37.6856 37.3005 37.6856 38.9991V43.3996C37.6856 45.0982 36.3038 46.4799 34.6052 46.4799H30.2047V53.5207H34.6052C36.3038 53.5207 37.6856 54.9025 37.6856 56.6011V61.0016C37.6856 62.7002 36.3038 64.0819 34.6052 64.0819H30.2047V66.2822C30.2047 68.9524 32.375 71.1227 35.0453 71.1227H64.5286C67.1988 71.1227 69.3692 68.9524 69.3692 66.2822V33.7185C69.3692 31.0483 67.1988 28.8779 64.5286 28.8779ZM59.2357 57.4706C57.2431 59.4632 54.5905 60.5615 51.7672 60.5615C48.9438 60.5615 46.2912 59.4632 44.2986 57.4706C42.3043 55.4763 41.206 52.8237 41.206 50.0003C41.206 47.177 42.3043 44.5243 44.2986 42.53C46.2912 40.5375 48.9438 39.4391 51.7672 39.4391C54.5905 39.4391 57.2431 40.5375 59.2357 42.53C61.23 44.5243 62.3284 47.177 62.3284 50.0003C62.3284 52.8237 61.23 55.4763 59.2357 57.4706Z" fill="#E8B531"/>
<path d="M56.5439 54.1385C56.5438 54.1383 56.5435 54.1383 56.5435 54.1386V56.1144C56.5435 56.556 56.1855 56.914 55.7438 56.914H46.7531C46.518 56.914 46.3274 56.7235 46.3274 56.4884V55.7671C46.3274 55.3625 46.5766 55.0056 46.9208 54.793C47.9163 54.1782 48.8372 53.0786 48.8372 51.8081C48.8372 51.7963 48.8371 51.7846 48.8371 51.773C48.8345 51.2766 48.4017 50.912 47.9053 50.912H47.5738C47.0215 50.912 46.5738 50.4642 46.5738 49.912V49.4125C46.5738 48.9662 46.9356 48.6043 47.382 48.6043V48.6043C47.8912 48.6043 48.2732 48.1382 48.2265 47.6311C48.2006 47.3497 48.1864 47.0651 48.1864 46.7906C48.1864 43.967 50.2482 42.1074 53.2482 42.1074C54.037 42.1074 54.6974 42.2172 55.1998 42.3669C55.6247 42.4935 55.8275 42.9424 55.7332 43.3756L55.6236 43.8793C55.4793 44.5424 54.6961 44.9125 54.0209 44.8457C53.843 44.8281 53.6534 44.8188 53.4519 44.8188C51.8603 44.8188 51.3691 45.8487 51.3691 46.9248C51.3691 47.2363 51.3878 47.5347 51.4258 47.8304C51.4846 48.2891 51.8952 48.6054 52.3577 48.6054H53.6396C54.1919 48.6054 54.6396 49.0531 54.6396 49.6054V49.913C54.6396 50.4653 54.1919 50.913 53.6396 50.913H51.9182C51.8875 50.913 51.8629 50.9385 51.8633 50.9693C51.8661 51.1696 51.8465 51.4496 51.8194 51.7324C51.7494 52.464 51.4513 53.1516 51.0053 53.7358V53.7358C50.8925 53.8835 50.9969 54.0966 51.1828 54.098L56.5437 54.1388C56.5438 54.1388 56.5439 54.1387 56.5439 54.1385V54.1385Z" fill="#E8B531"/>
</g>
<defs>
<clipPath id="clip0">
<rect width="100" height="100" fill="white"/>
</clipPath>
</defs>
</svg>
