<svg width="100" height="100" viewBox="0 0 100 100" fill="none" xmlns="http://www.w3.org/2000/svg">
<g clip-path="url(#clip0)">
<path fill-rule="evenodd" clip-rule="evenodd" d="M12 7C9.23858 7 7 9.23858 7 12V88C7 90.7614 9.23858 93 12 93H88C90.7614 93 93 90.7614 93 88V12C93 9.23858 90.7614 7 88 7H12ZM50 87C70.4345 87 87 70.4345 87 50C87 29.5655 70.4345 13 50 13C29.5655 13 13 29.5655 13 50C13 70.4345 29.5655 87 50 87Z" fill="#C3CDD8"/>
<path d="M55.2696 36.7163H54.5185C54.2745 35.9527 53.9666 35.211 53.5979 34.4983L54.1298 33.9664C55.4196 32.678 55.385 30.6132 54.1302 29.3597L52.5608 27.7905C51.3081 26.5361 49.243 26.4997 47.9542 27.79L47.4219 28.3223C46.7092 27.9536 45.9674 27.6457 45.2039 27.4017V26.6505C45.2039 24.8546 43.7429 23.3936 41.9469 23.3936H39.7265C37.9306 23.3936 36.4695 24.8546 36.4695 26.6505V27.4017C35.706 27.6456 34.9642 27.9535 34.2516 28.3223L33.7197 27.7905C32.4336 26.5028 30.3685 26.533 29.1132 27.79L27.5437 29.3594C26.2894 30.6123 26.2531 32.6772 27.5433 33.966L28.0756 34.4984C27.7068 35.211 27.399 35.9527 27.155 36.7163H26.4039C24.608 36.7163 23.1469 38.1773 23.1469 39.9732V42.1937C23.1469 43.9896 24.608 45.4506 26.4039 45.4506H27.155C27.399 46.2142 27.7068 46.9559 28.0756 47.6686L27.5437 48.2005C26.2539 49.4889 26.2885 51.5536 27.5433 52.8071L29.1126 54.3764C30.3654 55.6308 32.4305 55.6672 33.7193 54.3769L34.2516 53.8446C34.9642 54.2133 35.706 54.5212 36.4695 54.7652V55.5164C36.4695 57.3123 37.9307 58.7733 39.7266 58.7733H41.947C43.7429 58.7733 45.204 57.3123 45.204 55.5164V54.7652C45.9675 54.5213 46.7093 54.2133 47.4219 53.8446L47.9538 54.3764C49.24 55.6641 51.305 55.6339 52.5604 54.3768L54.1299 52.8074C55.3842 51.5545 55.4205 49.4896 54.1303 48.2008L53.5979 47.6684C53.9667 46.9558 54.2746 46.2141 54.5186 45.4505H55.2697C57.0656 45.4505 58.5267 43.9894 58.5267 42.1936V39.9731C58.5266 38.1773 57.0655 36.7163 55.2696 36.7163ZM40.8367 48.7813C36.5921 48.7813 33.1389 45.328 33.1389 41.0834C33.1389 36.8388 36.5921 33.3856 40.8367 33.3856C45.0814 33.3856 48.5346 36.8388 48.5346 41.0834C48.5346 45.328 45.0814 48.7813 40.8367 48.7813Z" fill="#C3CDD8"/>
<path d="M72.9678 63.1984H72.4888C72.3332 62.7115 72.1369 62.2386 71.9018 61.7841L72.241 61.445C73.0634 60.6234 73.0414 59.3068 72.2412 58.5075L71.2405 57.5068C70.4417 56.707 69.1248 56.6838 68.3031 57.5065L67.9636 57.846C67.5092 57.6109 67.0362 57.4145 66.5493 57.2589V56.7799C66.5493 55.6348 65.6177 54.7031 64.4725 54.7031H63.0566C61.9115 54.7031 60.9798 55.6348 60.9798 56.7799V57.2589C60.493 57.4145 60.0199 57.6108 59.5655 57.846L59.2264 57.5068C58.4062 56.6857 57.0894 56.705 56.289 57.5066L55.2882 58.5073C54.4883 59.3062 54.4652 60.6229 55.2879 61.4447L55.6274 61.7842C55.3922 62.2386 55.1959 62.7115 55.0403 63.1985H54.5614C53.4162 63.1984 52.4845 64.1301 52.4845 65.2752V66.6912C52.4845 67.8363 53.4162 68.768 54.5614 68.768H55.0403C55.1959 69.2549 55.3922 69.7278 55.6274 70.1822L55.2882 70.5214C54.4657 71.343 54.4878 72.6596 55.2879 73.4589L56.2886 74.4596C57.0874 75.2594 58.4043 75.2826 59.2261 74.4599L59.5655 74.1204C60.0199 74.3555 60.493 74.5519 60.9798 74.7074V75.1865C60.9798 76.3316 61.9115 77.2633 63.0567 77.2633H64.4725C65.6177 77.2633 66.5494 76.3316 66.5494 75.1865V74.7074C67.0362 74.5519 67.5092 74.3556 67.9637 74.1204L68.3028 74.4596C69.123 75.2807 70.4397 75.2614 71.2402 74.4598L72.241 73.4591C73.0408 72.6601 73.064 71.3434 72.2413 70.5216L71.9018 70.1822C72.137 69.7277 72.3333 69.2548 72.4889 68.7679H72.9678C74.113 68.7679 75.0447 67.8362 75.0447 66.6911V65.2752C75.0446 64.1301 74.1129 63.1984 72.9678 63.1984ZM63.7646 70.8918C61.0579 70.8918 58.856 68.6898 58.856 65.9832C58.856 63.2766 61.0579 61.0746 63.7646 61.0746C66.4712 61.0746 68.6732 63.2766 68.6732 65.9832C68.6732 68.6898 66.4712 70.8918 63.7646 70.8918Z" fill="#C3CDD8"/>
</g>
<defs>
<clipPath id="clip0">
<rect width="100" height="100" fill="white"/>
</clipPath>
</defs>
</svg>
