<svg width="101" height="100" viewBox="0 0 101 100" fill="none" xmlns="http://www.w3.org/2000/svg">
<g clip-path="url(#clip0)">
<rect x="7.59521" y="7" width="86" height="86" rx="5" fill="#71BDDD"/>
<path d="M87.5952 50C87.5952 70.4345 71.0298 87 50.5952 87C30.1607 87 13.5952 70.4345 13.5952 50C13.5952 29.5655 30.1607 13 50.5952 13C71.0298 13 87.5952 29.5655 87.5952 50Z" fill="white"/>
<path d="M39.9983 40.7202C40.713 34.5123 45.3655 29.7202 50.9983 29.7202C56.6311 29.7202 61.2836 34.5123 61.9983 40.7202" stroke="#71BDDD" stroke-width="4" stroke-linecap="round"/>
<path fill-rule="evenodd" clip-rule="evenodd" d="M37.1378 70.7202H65.5564C67.028 70.7202 68.2824 69.6528 68.5178 68.2001L71.4344 50.2001C71.7301 48.3755 70.3214 46.7202 68.4731 46.7202H33.6378C31.7512 46.7202 30.3329 48.4409 30.693 50.2928L34.193 68.2928C34.4671 69.7025 35.7017 70.7202 37.1378 70.7202ZM45.9983 52.7202C45.9983 54.3771 44.6551 55.7202 42.9983 55.7202C41.3414 55.7202 39.9983 54.3771 39.9983 52.7202C39.9983 51.0634 41.3414 49.7202 42.9983 49.7202C44.6551 49.7202 45.9983 51.0634 45.9983 52.7202ZM59.9983 55.7202C61.6551 55.7202 62.9983 54.3771 62.9983 52.7202C62.9983 51.0634 61.6551 49.7202 59.9983 49.7202C58.3414 49.7202 56.9983 51.0634 56.9983 52.7202C56.9983 54.3771 58.3414 55.7202 59.9983 55.7202Z" fill="#71BDDD"/>
</g>
<defs>
<clipPath id="clip0">
<rect x="0.595215" width="100" height="100" fill="white"/>
</clipPath>
</defs>
</svg>
