<svg width="100" height="100" viewBox="0 0 100 100" fill="none" xmlns="http://www.w3.org/2000/svg">
<g clip-path="url(#clip0)">
<rect x="7" y="7" width="86" height="86" rx="5" fill="#5461B5"/>
<path d="M87 50C87 70.4345 70.4345 87 50 87C29.5655 87 13 70.4345 13 50C13 29.5655 29.5655 13 50 13C70.4345 13 87 29.5655 87 50Z" fill="white"/>
<path d="M30.5172 46.0267V40.0668C31.0832 40.0668 31.5427 39.6217 31.5427 39.0734C31.5427 38.5251 31.0832 38.0801 30.5172 38.0801C27.6892 38.0801 25.3902 40.3091 25.3902 43.0467V45.0333C25.3902 46.6763 26.7704 48.0133 28.4664 48.0133H30.5172C31.0832 48.0133 31.5427 47.5683 31.5427 47.0199C31.5427 46.4716 31.0832 46.0267 30.5172 46.0267Z" fill="#5461B5"/>
<path d="M69.483 38.0801C68.9169 38.0801 68.4575 38.5251 68.4575 39.0734C68.4575 39.6217 68.9169 40.0668 69.483 40.0668V46.0267C68.9169 46.0267 68.4575 46.4717 68.4575 47.02C68.4575 47.5684 68.9169 48.0133 69.483 48.0133H71.5338C73.2298 48.0133 74.61 46.6763 74.61 45.0333V43.0467C74.61 40.3091 72.311 38.0801 69.483 38.0801Z" fill="#5461B5"/>
<path d="M43.0468 67.8794C42.4985 67.8794 42.0535 68.4178 42.0535 69.0811H36.0936C36.0936 68.4178 35.6485 67.8794 35.1002 67.8794C34.5519 67.8794 34.1069 68.4178 34.1069 69.0811V71.4844C34.1069 73.472 35.4438 75.0895 37.0868 75.0895H41.0602C42.7032 75.0895 44.0402 73.472 44.0402 71.4844V69.0811C44.0402 68.4178 43.5951 67.8794 43.0468 67.8794Z" fill="#5461B5"/>
<path d="M64.8998 67.8794C64.3515 67.8794 63.9065 68.4178 63.9065 69.0811H57.9466C57.9466 68.4178 57.5015 67.8794 56.9532 67.8794C56.4049 67.8794 55.96 68.4178 55.96 69.0811V71.4844C55.96 73.472 57.2969 75.0895 58.9399 75.0895H62.9132C64.5562 75.0895 65.8932 73.472 65.8932 71.4844V69.0811C65.8932 68.4178 65.4481 67.8794 64.8998 67.8794Z" fill="#5461B5"/>
<path d="M64.8998 26.1602H35.1003C32.3607 26.1602 30.1337 28.3892 30.1337 31.1267V64.8996C30.1337 67.6371 32.3608 69.8661 35.1003 69.8661H64.8998C67.6394 69.8661 69.8664 67.6371 69.8664 64.8996V31.1267C69.8664 28.3892 67.6394 26.1602 64.8998 26.1602ZM39.0736 30.1335H60.9266C62.5696 30.1335 63.9066 31.4704 63.9066 33.1134C63.9066 34.7564 62.5696 36.0934 60.9266 36.0934H39.0736C37.4306 36.0934 36.0936 34.7564 36.0936 33.1134C36.0936 31.4704 37.4306 30.1335 39.0736 30.1335ZM39.0736 63.9062C37.4306 63.9062 36.0936 62.5692 36.0936 60.9263C36.0936 59.2833 37.4306 57.9463 39.0736 57.9463C40.7166 57.9463 42.0535 59.2833 42.0535 60.9263C42.0535 62.5692 40.7165 63.9062 39.0736 63.9062ZM60.9265 63.9062C59.2835 63.9062 57.9466 62.5692 57.9466 60.9263C57.9466 59.2833 59.2835 57.9463 60.9265 57.9463C62.5695 57.9463 63.9065 59.2833 63.9065 60.9263C63.9065 62.5692 62.5695 63.9062 60.9265 63.9062ZM65.8932 50.9931C65.8932 52.6361 64.5562 53.9731 62.9132 53.9731H37.0869C35.4439 53.9731 34.1069 52.6361 34.1069 50.9931V41.0599C34.1069 39.4169 35.4439 38.08 37.0869 38.08H62.9131C64.5561 38.08 65.8931 39.4169 65.8931 41.0599L65.8932 50.9931Z" fill="#5461B5"/>
</g>
<defs>
<clipPath id="clip0">
<rect width="100" height="100" fill="white"/>
</clipPath>
</defs>
</svg>
